#N canvas 184 11 884 662 10;
#X obj 611 589 print;
#X msg 600 489 bang;
#X obj 24 76 v m_fader0;
#X obj 24 104 v m_fader1;
#X obj 24 131 v m_fader2;
#X obj 24 156 v m_fader3;
#X obj 216 73 v m_pan0;
#X obj 216 101 v m_pan1;
#X obj 216 128 v m_pan2;
#X obj 216 153 v m_pan3;
#X obj 214 179 v m_pan4;
#X obj 214 207 v m_pan5;
#X obj 214 234 v m_pan6;
#X obj 214 259 v m_pan7;
#X obj 22 182 v m_fader4;
#X obj 22 210 v m_fader5;
#X obj 22 237 v m_fader6;
#X obj 22 262 v m_fader7;
#X obj 209 439 v s_master_pan_0;
#X obj 208 462 v s_master_pan_1;
#X obj 109 -5 loadbang;
#X msg 316 437 23;
#X msg 319 464 24;
#X msg 94 76 81;
#X msg 91 103 82;
#X msg 92 131 83;
#X msg 93 157 84;
#X msg 92 182 85;
#X msg 89 209 86;
#X msg 90 237 87;
#X msg 91 263 88;
#X msg 286 73 1;
#X msg 283 100 2;
#X msg 284 128 3;
#X msg 285 154 4;
#X msg 284 179 5;
#X msg 281 206 6;
#X msg 282 234 7;
#X msg 283 260 8;
#X obj 606 538 v m_fader0;
#X msg 23 7 bang;
#X obj 20 315 v s_fader8;
#X obj 19 338 v s_fader9;
#X obj 17 366 v s_fader10;
#X obj 16 389 v s_fader11;
#X obj 211 318 v s_pan8;
#X obj 128 29 t b b b b b b b b b b b b b b b b b b b b b b b b b b
b b;
#X msg 94 315 91;
#X msg 93 338 92;
#X msg 91 366 93;
#X msg 90 389 94;
#X msg 285 318 11;
#X msg 284 341 12;
#X obj 210 341 v s_pan10;
#X msg 143 437 97;
#X msg 143 462 98;
#X obj 10 438 v s_master_fader_12;
#X obj 13 462 v s_master_fader_13;
#X connect 1 0 39 0;
#X connect 20 0 46 0;
#X connect 21 0 18 0;
#X connect 22 0 19 0;
#X connect 23 0 2 0;
#X connect 24 0 3 0;
#X connect 25 0 4 0;
#X connect 26 0 5 0;
#X connect 27 0 14 0;
#X connect 28 0 15 0;
#X connect 29 0 16 0;
#X connect 30 0 17 0;
#X connect 31 0 6 0;
#X connect 32 0 7 0;
#X connect 33 0 8 0;
#X connect 34 0 9 0;
#X connect 35 0 10 0;
#X connect 36 0 11 0;
#X connect 37 0 12 0;
#X connect 38 0 13 0;
#X connect 39 0 0 0;
#X connect 40 0 46 0;
#X connect 46 0 23 0;
#X connect 46 1 24 0;
#X connect 46 2 25 0;
#X connect 46 3 26 0;
#X connect 46 4 27 0;
#X connect 46 5 28 0;
#X connect 46 6 29 0;
#X connect 46 7 30 0;
#X connect 46 8 31 0;
#X connect 46 9 32 0;
#X connect 46 10 33 0;
#X connect 46 11 34 0;
#X connect 46 12 35 0;
#X connect 46 13 36 0;
#X connect 46 14 37 0;
#X connect 46 15 38 0;
#X connect 46 16 47 0;
#X connect 46 17 48 0;
#X connect 46 18 51 0;
#X connect 46 19 52 0;
#X connect 46 20 54 0;
#X connect 46 21 55 0;
#X connect 46 22 21 0;
#X connect 46 23 22 0;
#X connect 46 24 49 0;
#X connect 46 25 50 0;
#X connect 47 0 41 0;
#X connect 48 0 42 0;
#X connect 49 0 43 0;
#X connect 50 0 44 0;
#X connect 51 0 45 0;
#X connect 52 0 53 0;
#X connect 54 0 56 0;
#X connect 55 0 57 0;
