#N canvas 114 -317 884 662 10;
#X obj 343 26 print;
#X obj 88 21 dumpOSC 9003;
#X obj 30 190 s osc_m_fader0;
#X obj 34 219 s osc_m_fader1;
#X obj 32 247 s osc_m_fader2;
#X obj 34 272 s osc_m_fader3;
#X obj 37 299 s osc_m_fader4;
#X obj 31 326 s osc_m_fader5;
#X obj 34 385 s osc_m_fader7;
#X obj 35 355 s osc_m_fader6;
#X obj 43 434 s osc_s_fader8;
#X obj 46 458 s osc_s_fader9;
#X obj 43 486 s osc_s_fader10;
#X obj 43 509 s osc_s_fader11;
#X obj 244 195 s osc_m_pan0;
#X obj 243 221 s osc_m_pan1;
#X obj 243 248 s osc_m_pan2;
#X obj 243 273 s osc_m_pan3;
#X obj 241 299 s osc_m_pan4;
#X obj 241 327 s osc_m_pan5;
#X obj 241 354 s osc_m_pan6;
#X obj 241 379 s osc_m_pan7;
#X obj 238 438 s osc_s_pan8;
#X obj 237 461 s osc_s_pan10;
#X obj 37 558 s osc_s_master_fader_12;
#X obj 40 582 s osc_s_master_fader_13;
#X obj 185 51 OSCroute /fader /pan;
#X obj 236 559 s osc_s_master_pan_12;
#X obj 15 111 OSCroute /0 /1 /2 /3 /4 /5 /6 /7 /8 /9 /10 /11 /12 /13
;
#X obj 416 85 OSCroute /0 /1 /2 /3 /4 /5 /6 /7 /8 /10 /12;
#X connect 1 0 0 0;
#X connect 1 0 26 0;
#X connect 26 0 28 0;
#X connect 26 2 29 0;
#X connect 28 0 2 0;
#X connect 28 1 3 0;
#X connect 28 2 4 0;
#X connect 28 3 5 0;
#X connect 28 4 6 0;
#X connect 28 5 7 0;
#X connect 28 6 9 0;
#X connect 28 7 8 0;
#X connect 28 8 10 0;
#X connect 28 9 11 0;
#X connect 28 10 12 0;
#X connect 28 11 13 0;
#X connect 28 12 24 0;
#X connect 28 13 25 0;
#X connect 29 0 14 0;
#X connect 29 1 15 0;
#X connect 29 2 16 0;
#X connect 29 3 17 0;
#X connect 29 4 18 0;
#X connect 29 5 19 0;
#X connect 29 6 20 0;
#X connect 29 7 21 0;
#X connect 29 8 22 0;
#X connect 29 9 23 0;
#X connect 29 10 27 0;
