#N canvas 456 154 450 300 10;
#X obj 81 -143 ctlin;
#X obj 154 -107 sel;
#X obj 73 -22 f;
#X msg 94 -99 0;
#X msg 184 -75 0;
#X obj 66 -69 gate;
#X obj 120 -73 t b f;
#X msg 121 -47 1;
#X obj 98 41 outlet;
#X obj 161 43 outlet;
#X obj 136 -182 inlet;
#X connect 0 0 5 0;
#X connect 0 1 1 0;
#X connect 1 0 6 0;
#X connect 1 1 4 0;
#X connect 2 0 9 0;
#X connect 3 0 5 1;
#X connect 4 0 3 0;
#X connect 5 0 2 0;
#X connect 6 0 8 0;
#X connect 6 1 7 0;
#X connect 7 0 5 1;
#X connect 10 0 1 1;
