#N canvas 89 42 1081 678 10;
#X obj 103 140 adc~ 1 2 3 4 5 6 7 8;
#X obj 487 343 image ./mix2.gif;
#X obj 769 207 out;
#X text 744 150 3down mix;
#X obj 36 27 mvu;
#X obj 379 29 mvu;
#X obj 208 29 mvu;
#X obj 94 28 mvu;
#X obj 151 29 mvu;
#X obj 321 29 mvu;
#X obj 265 28 mvu;
#X obj 432 28 mvu;
#X connect 0 0 4 0;
#X connect 0 1 7 0;
#X connect 0 2 8 0;
#X connect 0 3 6 0;
#X connect 0 4 10 0;
#X connect 0 5 9 0;
#X connect 0 6 5 0;
#X connect 0 7 11 0;
#X connect 4 0 2 0;
#X connect 4 1 2 1;
#X connect 5 0 2 12;
#X connect 5 1 2 13;
#X connect 6 0 2 6;
#X connect 6 1 2 7;
#X connect 7 0 2 2;
#X connect 7 1 2 3;
#X connect 8 0 2 4;
#X connect 8 1 2 5;
#X connect 9 0 2 10;
#X connect 9 1 2 11;
#X connect 10 0 2 8;
#X connect 10 1 2 9;
#X connect 11 0 2 14;
#X connect 11 1 2 15;
#X coords 0 -1 1 1 1000 470 1 10 10;
