#N canvas 0 0 1697 978 10;
#X obj 759 172 out 12 13;
#X obj 388 527 loadbang;
#X msg 481 533 bang;
#X obj 407 574 dsp;
#X obj 803 61 tgl 35 0 empty empty empty 17 7 0 10 -258113 -1 -1 1
1;
#X floatatom 849 94 5 0 0 0 - - -;
#X text 888 93 % mean-cpu-load;
#X floatatom 849 77 5 0 0 0 - - -;
#X text 888 75 % peak-cpu-load;
#X text 845 59 DSP START/STOP;
#X obj 148 559 adc~ 1 2 3 4 5 6 7 8 9 10 11 12;
#X obj 548 27 mvu_stereo 8 9;
#X obj 640 27 mvu_stereo 10 11;
#X obj 98 27 mvu 1;
#X obj 36 27 mvu 0;
#X obj 284 27 mvu 4;
#X obj 469 27 mvu 7;
#X obj 408 27 mvu 6;
#X obj 160 27 mvu 2;
#X obj 222 27 mvu 3;
#X obj 346 27 mvu 5;
#X connect 1 0 4 0;
#X connect 2 0 4 0;
#X connect 3 0 7 0;
#X connect 3 1 5 0;
#X connect 4 0 3 0;
#X connect 10 0 14 0;
#X connect 10 1 13 0;
#X connect 10 2 18 0;
#X connect 10 3 19 0;
#X connect 10 4 15 0;
#X connect 10 5 20 0;
#X connect 10 6 17 0;
#X connect 10 7 16 0;
#X connect 10 8 11 0;
#X connect 10 9 11 1;
#X connect 10 10 12 0;
#X connect 10 11 12 1;
#X connect 11 0 0 16;
#X connect 11 1 0 17;
#X connect 12 0 0 18;
#X connect 12 1 0 19;
#X connect 13 0 0 2;
#X connect 13 1 0 3;
#X connect 14 0 0 0;
#X connect 14 1 0 1;
#X connect 15 0 0 8;
#X connect 15 1 0 9;
#X connect 16 0 0 14;
#X connect 16 1 0 15;
#X connect 17 0 0 12;
#X connect 17 1 0 13;
#X connect 18 0 0 4;
#X connect 18 1 0 5;
#X connect 19 0 0 6;
#X connect 19 1 0 7;
#X connect 20 0 0 10;
#X connect 20 1 0 11;
#X coords 0 -1 1 1 1000 470 1 10 10;
