#N canvas 0 -241 1697 978 10;
#X obj 736 244 out 12 13;
#X obj 384 611 loadbang;
#X msg 477 617 bang;
#X obj 403 658 dsp;
#X obj 789 165 tgl 35 0 empty empty empty 17 7 0 10 -258113 -1 -1 1
1;
#X floatatom 556 807 5 0 0 0 - - -;
#X text 595 806 % mean-cpu-load;
#X floatatom 556 790 5 0 0 0 - - -;
#X text 595 788 % peak-cpu-load;
#X text 580 736 DSP START/STOP;
#X obj 144 643 adc~ 1 2 3 4 5 6 7 8 9 10 11 12;
#N canvas 25 500 1255 300 slpl 0;
#X obj 197 24 r 0-slpl;
#X obj 280 21 r 1-slpl;
#X obj 353 24 r 2-slpl;
#X obj 419 26 r 3-slpl;
#X obj 558 29 r 5-slpl;
#X obj 626 30 r 6-slpl;
#X obj 693 28 r 7-slpl;
#X obj 210 141 s 0-mutepl;
#X obj 290 141 s 1-mutepl;
#X obj 370 140 s 2-mutepl;
#X obj 453 139 s 3-mutepl;
#X obj 533 141 s 4-mutepl;
#X obj 618 140 s 5-mutepl;
#X obj 699 139 s 6-mutepl;
#X obj 785 140 s 7-mutepl;
#X obj 487 27 r 4-slpl;
#X connect 0 0 8 0;
#X connect 0 0 9 0;
#X connect 0 0 10 0;
#X connect 0 0 11 0;
#X connect 0 0 12 0;
#X connect 0 0 13 0;
#X connect 0 0 14 0;
#X connect 1 0 7 0;
#X connect 1 0 9 0;
#X connect 1 0 10 0;
#X connect 1 0 11 0;
#X connect 1 0 12 0;
#X connect 1 0 13 0;
#X connect 1 0 14 0;
#X connect 2 0 7 0;
#X connect 2 0 8 0;
#X connect 2 0 10 0;
#X connect 2 0 11 0;
#X connect 2 0 12 0;
#X connect 2 0 13 0;
#X connect 2 0 14 0;
#X connect 3 0 7 0;
#X connect 3 0 8 0;
#X connect 3 0 9 0;
#X connect 3 0 11 0;
#X connect 3 0 12 0;
#X connect 3 0 13 0;
#X connect 3 0 14 0;
#X connect 4 0 7 0;
#X connect 4 0 8 0;
#X connect 4 0 9 0;
#X connect 4 0 10 0;
#X connect 4 0 11 0;
#X connect 4 0 13 0;
#X connect 4 0 14 0;
#X connect 5 0 7 0;
#X connect 5 0 8 0;
#X connect 5 0 9 0;
#X connect 5 0 10 0;
#X connect 5 0 11 0;
#X connect 5 0 12 0;
#X connect 5 0 14 0;
#X connect 6 0 7 0;
#X connect 6 0 8 0;
#X connect 6 0 9 0;
#X connect 6 0 10 0;
#X connect 6 0 11 0;
#X connect 6 0 12 0;
#X connect 6 0 13 0;
#X connect 15 0 7 0;
#X connect 15 0 8 0;
#X connect 15 0 9 0;
#X connect 15 0 10 0;
#X connect 15 0 12 0;
#X connect 15 0 13 0;
#X connect 15 0 14 0;
#X restore 1028 315 pd slpl;
#X obj 12 35 cnv 15 780 80 empty empty AUX_4_PRE_FL_-_2_POST_FL 20
9 0 14 -162280 -258113 0;
#X obj 25 52 aux 14 1;
#X obj 403 53 aux 17 4;
#X obj 151 52 aux 15 2;
#X obj 277 53 aux 16 3;
#X obj 529 53 aux 18 5;
#X obj 655 53 aux 19 6;
#X obj 859 104 make_midi_map;
#X obj 869 147 make_osc_map;
#X obj 270 131 mvu 4;
#X obj 525 220 mvu_stereo 8 9;
#X obj 799 24 cnv 15 1 1 empty empty http://msound.org 20 12 0 18 -128992
-258113 0;
#N canvas 724 235 450 300 oscback 1;
#X obj 248 208 sendOSC;
#X obj 54 23 r sosc0;
#X obj 54 44 r sosc1;
#X obj 53 65 r sosc2;
#X obj 53 89 r sosc3;
#X obj 53 112 r sosc4;
#X obj 54 135 r sosc5;
#X obj 53 156 r sosc6;
#X obj 53 183 r sosc7;
#X obj 52 205 r sosc8;
#X obj 53 226 r sosc9;
#X obj 52 246 r sosc10;
#X obj 51 268 r sosc11;
#X obj 51 293 r sosc12;
#X obj 50 313 r sosc13;
#X msg 271 85 connect localhost 9004;
#X msg 310 138 disconnect;
#X msg 126 22 send /vu/0 \$1;
#X msg 124 43 send /vu/1 \$1;
#X msg 124 65 send /vu/2 \$1;
#X msg 126 86 send /vu/3 \$1;
#X msg 124 111 send /vu/4 \$1;
#X msg 124 134 send /vu/5 \$1;
#X msg 123 158 send /vu/6 \$1;
#X msg 123 182 send /vu/7 \$1;
#X msg 122 204 send /vu/8 \$1;
#X msg 121 226 send /vu/9 \$1;
#X msg 121 248 send /vu/10 \$1;
#X msg 120 270 send /vu/11 \$1;
#X msg 118 292 send /vu/12 \$1;
#X msg 118 314 send /vu/13 \$1;
#X obj 279 11 inlet;
#X obj 361 43 pipe 1000;
#X connect 1 0 17 0;
#X connect 2 0 18 0;
#X connect 3 0 19 0;
#X connect 4 0 20 0;
#X connect 5 0 21 0;
#X connect 6 0 22 0;
#X connect 7 0 23 0;
#X connect 8 0 24 0;
#X connect 9 0 25 0;
#X connect 10 0 26 0;
#X connect 11 0 27 0;
#X connect 12 0 28 0;
#X connect 13 0 29 0;
#X connect 14 0 30 0;
#X connect 15 0 0 0;
#X connect 16 0 0 0;
#X connect 17 0 0 0;
#X connect 18 0 0 0;
#X connect 19 0 0 0;
#X connect 20 0 0 0;
#X connect 21 0 0 0;
#X connect 22 0 0 0;
#X connect 23 0 0 0;
#X connect 24 0 0 0;
#X connect 25 0 0 0;
#X connect 26 0 0 0;
#X connect 27 0 0 0;
#X connect 28 0 0 0;
#X connect 29 0 0 0;
#X connect 30 0 0 0;
#X connect 31 0 32 0;
#X connect 32 0 15 0;
#X restore 407 802 pd oscback;
#X obj 208 131 mvu 3;
#X obj 394 131 mvu 6;
#X obj 332 131 mvu 5;
#X obj 84 131 mvu 1;
#X obj 146 131 mvu 2;
#X obj 22 131 mvu 0;
#X obj 455 131 mvu 7;
#X obj 617 220 mvu_stereo 10 11;
#X connect 1 0 4 0;
#X connect 2 0 4 0;
#X connect 3 0 7 0;
#X connect 3 1 5 0;
#X connect 4 0 3 0;
#X connect 4 0 24 0;
#X connect 10 0 30 0;
#X connect 10 1 28 0;
#X connect 10 2 29 0;
#X connect 10 3 25 0;
#X connect 10 4 21 0;
#X connect 10 5 27 0;
#X connect 10 6 26 0;
#X connect 10 7 31 0;
#X connect 10 8 22 0;
#X connect 10 9 22 1;
#X connect 10 10 32 0;
#X connect 10 11 32 1;
#X connect 21 0 0 8;
#X connect 21 1 0 9;
#X connect 22 0 0 16;
#X connect 22 1 0 17;
#X connect 25 0 0 6;
#X connect 25 1 0 7;
#X connect 26 1 0 12;
#X connect 27 0 0 10;
#X connect 27 1 0 11;
#X connect 28 0 0 2;
#X connect 28 1 0 3;
#X connect 29 0 0 5;
#X connect 30 0 0 0;
#X connect 30 1 0 1;
#X connect 31 0 0 14;
#X connect 31 1 0 15;
#X connect 32 0 0 18;
#X connect 32 1 0 19;
#X coords 0 -1 1 1 1000 770 1 10 10;
