#N canvas 115 -156 1697 978 10;
#X obj 749 323 out 12 13;
#X obj 388 658 loadbang;
#X msg 481 664 bang;
#X obj 407 705 dsp;
#X obj 793 212 tgl 35 0 empty empty empty 17 7 0 10 -258113 -1 -1 1
1;
#X floatatom 556 807 5 0 0 0 - - -;
#X text 595 806 % mean-cpu-load;
#X floatatom 556 790 5 0 0 0 - - -;
#X text 595 788 % peak-cpu-load;
#X text 580 736 DSP START/STOP;
#X obj 148 690 adc~ 1 2 3 4 5 6 7 8 9 10 11 12;
#N canvas 25 500 1255 300 slpl 0;
#X obj 197 24 r 0-slpl;
#X obj 280 21 r 1-slpl;
#X obj 353 24 r 2-slpl;
#X obj 419 26 r 3-slpl;
#X obj 558 29 r 5-slpl;
#X obj 626 30 r 6-slpl;
#X obj 693 28 r 7-slpl;
#X obj 210 141 s 0-mutepl;
#X obj 290 141 s 1-mutepl;
#X obj 370 140 s 2-mutepl;
#X obj 453 139 s 3-mutepl;
#X obj 533 141 s 4-mutepl;
#X obj 618 140 s 5-mutepl;
#X obj 699 139 s 6-mutepl;
#X obj 785 140 s 7-mutepl;
#X obj 487 27 r 4-slpl;
#X connect 0 0 8 0;
#X connect 0 0 9 0;
#X connect 0 0 10 0;
#X connect 0 0 11 0;
#X connect 0 0 12 0;
#X connect 0 0 13 0;
#X connect 0 0 14 0;
#X connect 1 0 7 0;
#X connect 1 0 9 0;
#X connect 1 0 10 0;
#X connect 1 0 11 0;
#X connect 1 0 12 0;
#X connect 1 0 13 0;
#X connect 1 0 14 0;
#X connect 2 0 7 0;
#X connect 2 0 8 0;
#X connect 2 0 10 0;
#X connect 2 0 11 0;
#X connect 2 0 12 0;
#X connect 2 0 13 0;
#X connect 2 0 14 0;
#X connect 3 0 7 0;
#X connect 3 0 8 0;
#X connect 3 0 9 0;
#X connect 3 0 11 0;
#X connect 3 0 12 0;
#X connect 3 0 13 0;
#X connect 3 0 14 0;
#X connect 4 0 7 0;
#X connect 4 0 8 0;
#X connect 4 0 9 0;
#X connect 4 0 10 0;
#X connect 4 0 11 0;
#X connect 4 0 13 0;
#X connect 4 0 14 0;
#X connect 5 0 7 0;
#X connect 5 0 8 0;
#X connect 5 0 9 0;
#X connect 5 0 10 0;
#X connect 5 0 11 0;
#X connect 5 0 12 0;
#X connect 5 0 14 0;
#X connect 6 0 7 0;
#X connect 6 0 8 0;
#X connect 6 0 9 0;
#X connect 6 0 10 0;
#X connect 6 0 11 0;
#X connect 6 0 12 0;
#X connect 6 0 13 0;
#X connect 15 0 7 0;
#X connect 15 0 8 0;
#X connect 15 0 9 0;
#X connect 15 0 10 0;
#X connect 15 0 12 0;
#X connect 15 0 13 0;
#X connect 15 0 14 0;
#X restore 1028 315 pd slpl;
#X obj 16 82 cnv 15 780 80 empty empty AUX_4_PRE_FL_-_2_POST_FL 20
9 0 14 -162280 -258113 0;
#X obj 29 99 aux 14 1;
#X obj 407 100 aux 17 4;
#X obj 155 99 aux 15 2;
#X obj 281 100 aux 16 3;
#X obj 533 100 aux 18 5;
#X obj 659 100 aux 19 6;
#X obj 528 322 mvu_stereo 8 9;
#X obj 863 151 make_midi_map;
#X obj 150 178 mvu 2;
#X obj 620 322 mvu_stereo 10 11;
#X obj 26 178 mvu 0;
#X obj 336 178 mvu 5;
#X obj 398 178 mvu 6;
#X obj 274 178 mvu 4;
#X obj 88 178 mvu 1;
#X obj 212 178 mvu 3;
#X obj 459 178 mvu 7;
#X connect 1 0 4 0;
#X connect 2 0 4 0;
#X connect 3 0 7 0;
#X connect 3 1 5 0;
#X connect 4 0 3 0;
#X connect 10 0 23 0;
#X connect 10 1 27 0;
#X connect 10 2 21 0;
#X connect 10 3 28 0;
#X connect 10 4 26 0;
#X connect 10 5 24 0;
#X connect 10 6 25 0;
#X connect 10 7 29 0;
#X connect 10 8 19 0;
#X connect 10 9 19 1;
#X connect 10 10 22 0;
#X connect 10 11 22 1;
#X connect 19 0 0 16;
#X connect 19 1 0 17;
#X connect 21 0 0 5;
#X connect 22 0 0 18;
#X connect 22 1 0 19;
#X connect 23 0 0 0;
#X connect 23 1 0 1;
#X connect 24 0 0 10;
#X connect 24 1 0 11;
#X connect 25 1 0 12;
#X connect 26 0 0 8;
#X connect 26 1 0 9;
#X connect 27 0 0 2;
#X connect 27 1 0 3;
#X connect 28 0 0 6;
#X connect 28 1 0 7;
#X connect 29 0 0 14;
#X connect 29 1 0 15;
#X coords 0 -1 1 1 1000 770 1 10 10;
