#N canvas 135 33 1081 678 10;
#X obj 103 140 adc~ 1 2 3 4 5 6 7 8;
#X obj 545 168 out;
#X obj 388 527 loadbang;
#X msg 481 533 bang;
#X obj 407 574 dsp;
#X obj 567 29 tgl 35 0 empty empty empty 17 7 0 10 -258113 -1 -1 1
1;
#X floatatom 613 62 5 0 0 0 - - -;
#X text 652 61 % mean-cpu-load;
#X floatatom 613 45 5 0 0 0 - - -;
#X text 652 43 % peak-cpu-load;
#X text 609 27 DSP START/STOP;
#X obj 219 27 mvu;
#X obj 281 27 mvu;
#X obj 96 27 mvu;
#X obj 343 27 mvu;
#X obj 36 27 mvu;
#X obj 405 27 mvu;
#X obj 157 27 mvu;
#X obj 467 27 mvu;
#X connect 0 0 15 0;
#X connect 0 1 13 0;
#X connect 0 2 17 0;
#X connect 0 3 11 0;
#X connect 0 4 12 0;
#X connect 0 5 14 0;
#X connect 0 6 16 0;
#X connect 0 7 18 0;
#X connect 2 0 5 0;
#X connect 3 0 5 0;
#X connect 4 0 8 0;
#X connect 4 1 6 0;
#X connect 5 0 4 0;
#X connect 11 0 1 6;
#X connect 11 1 1 7;
#X connect 12 0 1 8;
#X connect 12 1 1 9;
#X connect 13 0 1 2;
#X connect 13 1 1 3;
#X connect 14 0 1 10;
#X connect 14 1 1 11;
#X connect 15 0 1 0;
#X connect 15 1 1 1;
#X connect 16 0 1 12;
#X connect 16 1 1 13;
#X connect 17 0 1 4;
#X connect 17 1 1 5;
#X connect 18 0 1 14;
#X connect 18 1 1 15;
#X coords 0 -1 1 1 1000 470 1 10 10;
