#N canvas 135 33 1081 678 10;
#X obj 103 140 adc~ 1 2 3 4 5 6 7 8;
#X obj 545 168 out;
#X obj 96 27 mvu;
#X obj 343 27 mvu;
#X obj 281 27 mvu;
#X obj 36 27 mvu;
#X obj 219 27 mvu;
#X obj 405 27 mvu;
#X obj 157 27 mvu;
#X obj 467 27 mvu;
#X connect 0 0 5 0;
#X connect 0 1 2 0;
#X connect 0 2 8 0;
#X connect 0 3 6 0;
#X connect 0 4 4 0;
#X connect 0 5 3 0;
#X connect 0 6 7 0;
#X connect 0 7 9 0;
#X connect 2 0 1 2;
#X connect 2 1 1 3;
#X connect 3 0 1 10;
#X connect 3 1 1 11;
#X connect 4 0 1 8;
#X connect 4 1 1 9;
#X connect 5 0 1 0;
#X connect 5 1 1 1;
#X connect 6 0 1 6;
#X connect 6 1 1 7;
#X connect 7 0 1 12;
#X connect 7 1 1 13;
#X connect 8 0 1 4;
#X connect 8 1 1 5;
#X connect 9 0 1 14;
#X connect 9 1 1 15;
#X coords 0 -1 1 1 1000 470 1 10 10;
