#N canvas 188 0 836 789 10;
#X obj 339 7 loadbang;
#X msg 157 20 bang;
#X msg 259 56 bang;
#X msg 151 53 0.5;
#X msg 36 98 1;
#X obj 17 188 r \$0-vu-in;
#X obj 118 60 cnv 15 61 430 empty empty empty 20 12 0 14 -162280 -66577
0;
#X obj 148 292 vu 10 120 \$0-vu-in empty -1 -8 0 8 -66577 -262144 0
0;
#X obj 135 291 vsl 10 120 0 3 0 0 \$0-fader-out \$0-fader-in empty
0 -9 0 10 -260097 -1 -1 3967 1;
#X obj 123 237 tgl 15 0 \$0-pre-out \$0-pre-in empty 17 7 0 10 -4160
-262144 -262144 0 1;
#X text 140 236 PRE;
#X obj 123 254 tgl 15 0 \$0-mute-out \$0-mute-in empty 17 7 0 10 -257985
-1 -1 0 1;
#X text 139 254 MUTE;
#X obj 161 317 bng 15 250 50 0 empty empty empty 17 7 0 10 -66577 -258113
-258113;
#X obj 161 333 bng 15 250 50 0 empty empty empty 17 7 0 10 -66577 -260097
-260097;
#X obj 129 274 nbx 3 14 -1e+37 1e+37 0 0 empty empty empty 0 -8 0 10
-260097 -1 -1 1.00008 256;
#X obj 161 349 bng 15 250 50 0 empty empty empty 17 7 0 10 -66577 -4034
-4034;
#X obj 129 438 nbx 3 14 -1e+37 1e+37 0 0 empty empty empty 0 -8 0 10
-4034 -1 -1 -38.89 256;
#X obj 131 199 hsl 38 10 0 1 0 0 \$0-pan-out \$0-pan-in empty -2 -8
0 10 -232576 -1 -1 1850 1;
#X text 138 184 PAN;
#X obj 119 73 cnv 15 2 410 empty empty empty 20 12 0 14 -33289 -33289
0;
#N canvas 382 272 540 300 preout 0;
#X obj -105 198 spigot;
#X obj -104 119 sel 0 1;
#X msg -117 153 1;
#X msg -53 149 0;
#X msg -44 78 0;
#X obj -140 84 r \$0-pre-out;
#X obj -112 237 s \$0-sp0;
#X obj -297 236 s \$0-sp1;
#X msg -187 112 1;
#X obj -261 153 r \$0-fader-out;
#X msg -305 77 bang;
#X obj -242 24 inlet;
#X obj -179 19 inlet;
#X obj -321 157 outlet;
#X obj -133 45 t b b;
#X connect 0 0 6 0;
#X connect 1 0 2 0;
#X connect 1 1 3 0;
#X connect 2 0 0 1;
#X connect 3 0 0 1;
#X connect 3 0 7 0;
#X connect 4 0 1 0;
#X connect 5 0 1 0;
#X connect 5 0 10 0;
#X connect 8 0 0 0;
#X connect 9 0 0 0;
#X connect 10 0 13 0;
#X connect 11 0 10 0;
#X connect 12 0 14 0;
#X connect 14 0 8 0;
#X connect 14 1 4 0;
#X restore 550 164 pd preout;
#N canvas 412 13 450 300 vuin 0;
#X msg -291 -128 1;
#X obj -326 -73 *;
#X obj -226 -23 *~;
#X obj -332 -4 s \$0-vu-in;
#X obj -268 -106 r \$0-sp0;
#X obj -271 -160 r \$0-sp1;
#X obj -279 -65 r \$0-pan-out;
#X obj -319 -37 - 100;
#X obj -289 -189 inlet;
#X obj -297 49 outlet;
#X connect 0 0 1 1;
#X connect 1 0 7 0;
#X connect 4 0 1 1;
#X connect 5 0 0 0;
#X connect 6 0 2 1;
#X connect 7 0 3 0;
#X connect 7 0 9 0;
#X connect 8 0 1 0;
#X restore 251 387 pd vuin;
#N canvas 480 46 800 593 manyspigot 0;
#X obj 124 280 spigot;
#X obj 214 149 sel 0 1;
#X msg 184 202 1;
#X msg 253 198 0;
#X obj 263 246 t f f;
#X msg 287 340 -100;
#X obj 187 334 spigot;
#X obj 211 110 r \$0-mute-out;
#X obj 308 363 s \$0-vu-in;
#X msg 240 409 0;
#X msg 358 399 0;
#X obj 150 61 inlet;
#X obj 30 259 outlet;
#X obj 193 487 outlet;
#X obj 263 485 outlet;
#X obj 350 484 outlet;
#X obj 62 68 inlet;
#X connect 0 0 13 0;
#X connect 1 0 2 0;
#X connect 1 0 12 0;
#X connect 1 1 3 0;
#X connect 2 0 0 1;
#X connect 2 0 6 1;
#X connect 3 0 0 1;
#X connect 3 0 4 0;
#X connect 3 0 6 1;
#X connect 4 0 0 1;
#X connect 4 1 5 0;
#X connect 5 0 8 0;
#X connect 5 0 9 0;
#X connect 6 0 10 0;
#X connect 7 0 1 0;
#X connect 9 0 14 0;
#X connect 10 0 15 0;
#X connect 11 0 2 0;
#X connect 16 0 0 0;
#X restore 269 280 pd manyspigot;
#N canvas 681 120 599 411 audioout 0;
#X obj -202 -234 inlet~;
#X obj -238 -18 outlet~;
#X obj -50 -124 expr 1-$f1;
#X obj -81 -13 outlet~;
#X obj -94 -76 *~;
#X obj -192 -70 *~;
#X obj 24 -174 r \$0-pan-out;
#X obj -283 -107 r \$0-pan-out;
#X obj -152 -202 r \$0-fader-out;
#X obj -139 -126 *~;
#X obj -268 -168 outlet;
#X obj -104 -305 inlet;
#X obj -31 -293 inlet;
#X obj -255 -265 s~ \$0-preinlet;
#X obj 20 -65 s~ \$0-postinlet;
#X obj -255 -200 env~ 65536;
#X connect 0 0 9 0;
#X connect 0 0 13 0;
#X connect 0 0 15 0;
#X connect 2 0 4 1;
#X connect 4 0 1 0;
#X connect 5 0 3 0;
#X connect 6 0 2 0;
#X connect 7 0 5 1;
#X connect 8 0 9 1;
#X connect 9 0 4 0;
#X connect 9 0 5 0;
#X connect 9 0 14 0;
#X connect 11 0 9 1;
#X connect 12 0 4 1;
#X connect 12 0 5 1;
#X connect 15 0 10 0;
#X restore 425 334 pd audioout;
#X obj 417 272 inlet~;
#X obj 382 420 outlet~;
#X obj 506 402 outlet~;
#X obj 127 465 nbx 2 24 0 30 0 0 empty empty empty 0 -8 0 18 -1 -260097
-260097 6 256;
#X obj 206 94 f \$1;
#X text 146 61 mono;
#X obj 11 298 moses -95;
#X obj 22 255 moses -15;
#X obj 41 225 moses -3;
#X obj 123 220 tgl 15 0 \$0-slpls empty empty 17 7 0 10 -159808 -1
-1 0 1;
#X text 140 220 S IPL;
#X msg 76 128 0;
#N canvas 260 158 493 442 locslp 0;
#X obj 154 54 inlet;
#X obj -5 202 s \$1-slpl;
#X obj 175 102 r \$1-mutepl;
#X obj 39 115 r \$0-slpls;
#X obj 185 221 s \$0-mute-in;
#X obj 120 194 f 0;
#X obj 321 122 f;
#X obj 172 172 spigot;
#X msg 238 138 1;
#X obj 188 125 t f b;
#X obj 317 158 sel 0 1;
#X msg 245 164 0;
#X obj 106 328 + 1;
#X obj 41 325 f;
#X obj 106 377 print;
#X obj 39 275 sel 0 1;
#X obj 169 276 -1;
#X obj 55 245 f;
#X obj 47 151 t f b f;
#X obj 172 379 s hmspl;
#X text 182 356 todo... count how many spl;
#X connect 0 0 6 0;
#X connect 2 0 9 0;
#X connect 3 0 18 0;
#X connect 5 0 4 0;
#X connect 6 0 10 0;
#X connect 7 0 4 0;
#X connect 8 0 7 1;
#X connect 9 0 7 0;
#X connect 9 1 6 0;
#X connect 10 0 8 0;
#X connect 10 1 11 0;
#X connect 11 0 7 1;
#X connect 12 0 14 0;
#X connect 12 0 13 1;
#X connect 12 0 19 0;
#X connect 13 0 12 0;
#X connect 15 1 13 0;
#X connect 17 0 15 0;
#X connect 18 0 1 0;
#X connect 18 1 5 0;
#X connect 18 2 17 0;
#X restore 235 196 pd locslp;
#X obj 128 94 tgl 15 0 empty empty empty 17 7 0 10 -191407 -1 -1 0
1;
#X text 145 94 AUX1;
#X obj 128 109 tgl 15 0 empty empty empty 17 7 0 10 -191407 -1 -1 0
1;
#X obj 128 123 tgl 15 0 empty empty empty 17 7 0 10 -191407 -1 -1 0
1;
#X obj 128 137 tgl 15 0 empty empty empty 17 7 0 10 -191407 -1 -1 0
1;
#X obj 128 152 tgl 15 0 empty empty empty 17 7 0 10 -191407 -1 -1 0
1;
#X obj 128 167 tgl 15 0 empty empty empty 17 7 0 10 -191407 -1 -1 0
1;
#X text 145 109 AUX2;
#X text 145 123 AUX3;
#X text 145 137 AUX4;
#X text 145 152 AUX5;
#X text 145 167 AUX6;
#X obj 369 546 r~ \$0-preinlet;
#X obj 475 545 *~;
#X obj 472 568 *~;
#X obj 472 597 *~;
#X obj 469 628 *~;
#X obj 472 654 *~;
#X obj 473 682 *~;
#X obj 366 655 r~ \$0-postinlet;
#X obj 503 546 s~ 1-\$1-afpl;
#X obj 500 569 s~ 2-\$1-afpl;
#X obj 500 599 s~ 3-\$1-afpl;
#X obj 497 629 s~ 4-\$1-afpl;
#X obj 500 655 s~ 5-\$1-afpl;
#X obj 501 683 s~ 6-\$1-afpl;
#X connect 0 0 3 0;
#X connect 0 0 2 0;
#X connect 0 0 4 0;
#X connect 0 0 21 1;
#X connect 0 0 36 0;
#X connect 1 0 3 0;
#X connect 1 0 4 0;
#X connect 2 0 23 1;
#X connect 2 0 29 0;
#X connect 3 0 18 0;
#X connect 4 0 8 0;
#X connect 5 0 33 0;
#X connect 5 0 32 0;
#X connect 5 0 31 0;
#X connect 7 0 17 0;
#X connect 8 0 15 0;
#X connect 14 0 16 0;
#X connect 21 0 8 0;
#X connect 22 0 7 0;
#X connect 23 0 21 0;
#X connect 23 1 22 0;
#X connect 23 2 24 1;
#X connect 23 3 24 2;
#X connect 24 0 23 0;
#X connect 24 1 26 0;
#X connect 24 2 27 0;
#X connect 25 0 24 0;
#X connect 29 0 28 0;
#X connect 31 1 16 0;
#X connect 32 1 14 0;
#X connect 33 1 13 0;
#X connect 34 0 37 0;
#X connect 36 0 34 0;
#X connect 38 0 51 1;
#X connect 40 0 52 1;
#X connect 41 0 53 1;
#X connect 42 0 54 1;
#X connect 43 0 55 1;
#X connect 44 0 56 1;
#X connect 50 0 51 0;
#X connect 50 0 52 0;
#X connect 50 0 53 0;
#X connect 50 0 54 0;
#X connect 51 0 58 0;
#X connect 52 0 59 0;
#X connect 53 0 60 0;
#X connect 54 0 61 0;
#X connect 55 0 62 0;
#X connect 56 0 63 0;
#X connect 57 0 55 0;
#X connect 57 0 56 0;
#X coords 0 -1 1 1 61 430 1 118 60;
