#N canvas 207 -35 1073 789 10;
#X obj 339 7 loadbang;
#X obj 237 452 inlet~;
#X msg 157 20 bang;
#X obj 239 384 spigot;
#X obj 329 253 sel 0 1;
#X msg 299 306 1;
#X msg 368 302 0;
#X msg 259 56 bang;
#X obj 378 350 t f f;
#X msg 402 444 -100;
#X obj 661 291 spigot;
#X obj 662 212 sel 0 1;
#X msg 649 246 1;
#X msg 713 242 0;
#X obj 50 738 outlet~;
#X msg 151 53 0.5;
#X obj 591 561 expr 1-$f1;
#X obj 230 738 outlet~;
#X msg 36 98 1;
#X msg 41 544 1;
#X obj 16 605 *;
#X obj 302 438 spigot;
#X obj 544 631 *~;
#X obj 116 655 *~;
#X obj 41 225 moses 0;
#X obj 212 324 env~ 16384;
#X msg 722 171 0;
#X obj 10 674 s \$0-vu-in;
#X obj 607 168 r \$0-pre-out;
#X obj 326 214 r \$0-mute-out;
#X obj 423 467 s \$0-vu-in;
#X obj 654 330 s \$0-sp0;
#X obj 74 572 r \$0-sp0;
#X obj 440 339 s \$0-sp1;
#X obj 60 519 r \$0-sp1;
#X obj 635 512 r \$0-pan-out;
#X obj 63 613 r \$0-pan-out;
#X obj 17 188 r \$0-vu-in;
#X msg 579 205 1;
#X obj 271 484 r \$0-fader-out;
#X obj 23 641 - 100;
#X obj 273 548 *~;
#X msg 355 513 0;
#X obj 532 27 inlet;
#X obj 533 240 r \$0-fader-out;
#X msg 473 503 0;
#X obj 23 297 moses -80;
#X msg 461 170 bang;
#X obj 22 255 moses -10;
#X obj 118 61 cnv 15 61 430 empty empty empty 20 12 0 14 -162280 -66577
0;
#X obj 145 238 vu 10 120 \$0-vu-in empty -1 -8 0 8 -66577 -262144 0
0;
#X obj 132 237 vsl 10 120 0 3 0 0 \$0-fader-out \$0-fader-in empty
0 -9 0 10 -260097 -1 -1 3967 1;
#X obj 120 183 tgl 15 0 \$0-pre-out \$0-pre-in empty 17 7 0 10 -4160
-262144 -262144 0 1;
#X text 137 182 PRE;
#X obj 120 200 tgl 15 0 \$0-mute-out \$0-mute-in empty 17 7 0 10 -257985
-1 -1 0 1;
#X text 136 200 MUTE;
#X text 120 287 0;
#X obj 161 254 bng 15 250 50 0 empty empty empty 17 7 0 10 -66577 -258113
-258113;
#X obj 161 270 bng 15 250 50 0 empty empty empty 17 7 0 10 -66577 -260097
-260097;
#X obj 126 220 nbx 3 14 -1e+37 1e+37 0 0 empty empty empty 0 -8 0 10
-260097 -1 -1 1.00008 256;
#X obj 161 285 bng 15 250 50 0 empty empty empty 17 7 0 10 -66577 -4034
-4034;
#X obj 126 384 nbx 3 14 -1e+37 1e+37 0 0 empty empty empty 0 -8 0 10
-4034 -1 -1 -40.06 256;
#X obj 128 166 hsl 38 10 0 1 0 0 \$0-pan-out \$0-pan-in empty -2 -8
0 10 -232576 -1 -1 2000 1;
#X text 135 149 PAN;
#X connect 0 0 15 0;
#X connect 0 0 7 0;
#X connect 0 0 18 0;
#X connect 0 0 26 0;
#X connect 0 0 38 0;
#X connect 1 0 25 0;
#X connect 1 0 41 0;
#X connect 2 0 15 0;
#X connect 2 0 18 0;
#X connect 3 0 20 0;
#X connect 4 0 5 0;
#X connect 4 0 47 0;
#X connect 4 1 6 0;
#X connect 5 0 3 1;
#X connect 5 0 21 1;
#X connect 6 0 3 1;
#X connect 6 0 8 0;
#X connect 6 0 21 1;
#X connect 7 0 5 0;
#X connect 8 0 3 1;
#X connect 8 1 9 0;
#X connect 9 0 30 0;
#X connect 9 0 42 0;
#X connect 10 0 31 0;
#X connect 11 0 12 0;
#X connect 11 1 13 0;
#X connect 12 0 10 1;
#X connect 13 0 10 1;
#X connect 13 0 33 0;
#X connect 15 0 62 0;
#X connect 16 0 22 1;
#X connect 18 0 51 0;
#X connect 19 0 20 1;
#X connect 20 0 40 0;
#X connect 21 0 45 0;
#X connect 22 0 14 0;
#X connect 23 0 17 0;
#X connect 24 1 57 0;
#X connect 25 0 3 0;
#X connect 26 0 11 0;
#X connect 28 0 11 0;
#X connect 28 0 47 0;
#X connect 29 0 4 0;
#X connect 32 0 20 1;
#X connect 34 0 19 0;
#X connect 35 0 16 0;
#X connect 36 0 23 1;
#X connect 37 0 24 0;
#X connect 37 0 46 0;
#X connect 37 0 48 0;
#X connect 38 0 10 0;
#X connect 39 0 41 1;
#X connect 40 0 27 0;
#X connect 40 0 50 0;
#X connect 41 0 22 0;
#X connect 41 0 23 0;
#X connect 42 0 41 1;
#X connect 43 0 54 0;
#X connect 44 0 10 0;
#X connect 45 0 22 1;
#X connect 45 0 23 1;
#X connect 46 1 60 0;
#X connect 47 0 51 0;
#X connect 48 1 58 0;
#X connect 50 0 61 0;
#X connect 51 0 59 0;
#X connect 58 0 60 0;
#X coords 0 -1 1 1 61 430 1 118 60;
