#N canvas 207 11 1073 789 10;
#X obj 339 7 loadbang;
#X msg 157 20 bang;
#X msg 259 56 bang;
#X msg 151 53 0.5;
#X msg 36 98 1;
#X obj 41 225 moses 0;
#X obj 17 188 r \$0-vu-in;
#X obj 23 297 moses -80;
#X obj 22 255 moses -10;
#X obj 118 60 cnv 15 61 430 empty empty empty 20 12 0 14 -162280 -66577
0;
#X obj 148 292 vu 10 120 \$0-vu-in empty -1 -8 0 8 -66577 -262144 0
0;
#X obj 135 291 vsl 10 120 0 3 0 0 \$0-fader-out \$0-fader-in empty
0 -9 0 10 -260097 -1 -1 3967 1;
#X obj 123 237 tgl 15 0 \$0-pre-out \$0-pre-in empty 17 7 0 10 -4160
-262144 -262144 0 1;
#X text 140 236 PRE;
#X obj 123 254 tgl 15 0 \$0-mute-out \$0-mute-in empty 17 7 0 10 -257985
-1 -1 0 1;
#X text 139 254 MUTE;
#X obj 161 317 bng 15 250 50 0 empty empty empty 17 7 0 10 -66577 -258113
-258113;
#X obj 161 333 bng 15 250 50 0 empty empty empty 17 7 0 10 -66577 -260097
-260097;
#X obj 129 274 nbx 3 14 -1e+37 1e+37 0 0 empty empty empty 0 -8 0 10
-260097 -1 -1 1.00008 256;
#X obj 161 349 bng 15 250 50 0 empty empty empty 17 7 0 10 -66577 -4034
-4034;
#X obj 129 438 nbx 3 14 -1e+37 1e+37 0 0 empty empty empty 0 -8 0 10
-4034 -1 -1 -100 256;
#X obj 131 220 hsl 38 10 0 1 0 0 \$0-pan-out \$0-pan-in empty -2 -8
0 10 -232576 -1 -1 1850 1;
#X text 138 203 PAN;
#X obj 119 73 cnv 15 2 410 empty empty empty 20 12 0 14 -33289 -33289
0;
#N canvas 382 272 540 300 preout 0;
#X obj -105 198 spigot;
#X obj -104 119 sel 0 1;
#X msg -117 153 1;
#X msg -53 149 0;
#X msg -44 78 0;
#X obj -140 84 r \$0-pre-out;
#X obj -112 237 s \$0-sp0;
#X obj -297 236 s \$0-sp1;
#X msg -187 112 1;
#X obj -261 153 r \$0-fader-out;
#X msg -305 77 bang;
#X obj -242 24 inlet;
#X obj -179 19 inlet;
#X obj -321 157 outlet;
#X obj -133 45 t b b;
#X connect 0 0 6 0;
#X connect 1 0 2 0;
#X connect 1 1 3 0;
#X connect 2 0 0 1;
#X connect 3 0 0 1;
#X connect 3 0 7 0;
#X connect 4 0 1 0;
#X connect 5 0 1 0;
#X connect 5 0 10 0;
#X connect 8 0 0 0;
#X connect 9 0 0 0;
#X connect 10 0 13 0;
#X connect 11 0 10 0;
#X connect 12 0 14 0;
#X connect 14 0 8 0;
#X connect 14 1 4 0;
#X restore 550 164 pd preout;
#N canvas 412 13 450 300 vuin 0;
#X msg -291 -128 1;
#X obj -326 -73 *;
#X obj -226 -23 *~;
#X obj -332 -4 s \$0-vu-in;
#X obj -268 -106 r \$0-sp0;
#X obj -271 -160 r \$0-sp1;
#X obj -279 -65 r \$0-pan-out;
#X obj -319 -37 - 100;
#X obj -289 -189 inlet;
#X obj -297 49 outlet;
#X connect 0 0 1 1;
#X connect 1 0 7 0;
#X connect 4 0 1 1;
#X connect 5 0 0 0;
#X connect 6 0 2 1;
#X connect 7 0 3 0;
#X connect 7 0 9 0;
#X connect 8 0 1 0;
#X restore 251 387 pd vuin;
#N canvas 480 46 800 593 manyspigot 0;
#X obj 124 280 spigot;
#X obj 214 149 sel 0 1;
#X msg 184 202 1;
#X msg 253 198 0;
#X obj 263 246 t f f;
#X msg 287 340 -100;
#X obj 187 334 spigot;
#X obj 211 110 r \$0-mute-out;
#X obj 308 363 s \$0-vu-in;
#X msg 240 409 0;
#X msg 358 399 0;
#N canvas 0 0 450 300 manyspigot 0;
#X restore 407 184 pd manyspigot;
#X obj 150 61 inlet;
#X obj 30 259 outlet;
#X obj 193 487 outlet;
#X obj 263 485 outlet;
#X obj 350 484 outlet;
#X obj 62 68 inlet;
#X connect 0 0 14 0;
#X connect 1 0 2 0;
#X connect 1 0 13 0;
#X connect 1 1 3 0;
#X connect 2 0 0 1;
#X connect 2 0 6 1;
#X connect 3 0 0 1;
#X connect 3 0 4 0;
#X connect 3 0 6 1;
#X connect 4 0 0 1;
#X connect 4 1 5 0;
#X connect 5 0 8 0;
#X connect 5 0 9 0;
#X connect 6 0 10 0;
#X connect 7 0 1 0;
#X connect 9 0 15 0;
#X connect 10 0 16 0;
#X connect 12 0 2 0;
#X connect 17 0 0 0;
#X restore 269 280 pd manyspigot;
#N canvas 890 120 599 411 audioout 0;
#X obj -202 -234 inlet~;
#X obj -238 -18 outlet~;
#X obj -50 -124 expr 1-$f1;
#X obj -81 -13 outlet~;
#X obj -94 -76 *~;
#X obj -192 -70 *~;
#X obj 24 -174 r \$0-pan-out;
#X obj -283 -107 r \$0-pan-out;
#X obj -152 -202 r \$0-fader-out;
#X obj -139 -126 *~;
#X obj -255 -200 env~ 16384;
#X obj -268 -168 outlet;
#X obj -104 -305 inlet;
#X obj -31 -293 inlet;
#X connect 0 0 9 0;
#X connect 0 0 10 0;
#X connect 2 0 4 1;
#X connect 4 0 1 0;
#X connect 5 0 3 0;
#X connect 6 0 2 0;
#X connect 7 0 5 1;
#X connect 8 0 9 1;
#X connect 9 0 4 0;
#X connect 9 0 5 0;
#X connect 10 0 11 0;
#X connect 12 0 9 1;
#X connect 13 0 4 1;
#X connect 13 0 5 1;
#X restore 425 334 pd audioout;
#X obj 417 272 inlet~;
#X obj 382 420 outlet~;
#X obj 506 402 outlet~;
#X obj 126 465 nbx 2 24 0 30 0 0 empty empty empty 0 -8 0 18 -1 -260097
-260097 4 256;
#X text 103 695 comment;
#X obj 206 94 f \$1;
#X connect 0 0 3 0;
#X connect 0 0 2 0;
#X connect 0 0 4 0;
#X connect 0 0 24 1;
#X connect 1 0 3 0;
#X connect 1 0 4 0;
#X connect 2 0 26 1;
#X connect 2 0 33 0;
#X connect 3 0 21 0;
#X connect 4 0 11 0;
#X connect 5 1 16 0;
#X connect 6 0 5 0;
#X connect 6 0 7 0;
#X connect 6 0 8 0;
#X connect 7 1 19 0;
#X connect 8 1 17 0;
#X connect 10 0 20 0;
#X connect 11 0 18 0;
#X connect 17 0 19 0;
#X connect 24 0 11 0;
#X connect 25 0 10 0;
#X connect 26 0 24 0;
#X connect 26 1 25 0;
#X connect 26 2 27 1;
#X connect 26 3 27 2;
#X connect 27 0 26 0;
#X connect 27 1 29 0;
#X connect 27 2 30 0;
#X connect 28 0 27 0;
#X connect 33 0 31 0;
#X coords 0 -1 1 1 61 430 1 118 60;
