#N canvas 697 -81 819 905 10;
#X obj 339 7 loadbang;
#X msg 157 20 bang;
#X msg 259 56 bang;
#X msg 153 51 0.5;
#X msg 36 98 1;
#X obj 17 188 r \$0-vu-in;
#X obj 118 60 cnv 15 61 520 empty empty empty 20 12 0 14 -162280 -66577
0;
#X obj 119 71 cnv 15 2 480 empty empty empty 20 12 0 14 -33289 -33289
0;
#N canvas 382 272 540 300 preout 0;
#X obj -105 198 spigot;
#X obj -104 119 sel 0 1;
#X msg -117 153 1;
#X msg -53 149 0;
#X msg -44 78 0;
#X obj -140 84 r \$0-pre-out;
#X obj -112 237 s \$0-sp0;
#X obj -297 236 s \$0-sp1;
#X msg -187 112 1;
#X obj -261 153 r \$0-fader-out;
#X msg -305 77 bang;
#X obj -242 24 inlet;
#X obj -179 19 inlet;
#X obj -321 157 outlet;
#X obj -133 45 t b b;
#X connect 0 0 6 0;
#X connect 1 0 2 0;
#X connect 1 1 3 0;
#X connect 2 0 0 1;
#X connect 3 0 0 1;
#X connect 3 0 7 0;
#X connect 4 0 1 0;
#X connect 5 0 1 0;
#X connect 5 0 10 0;
#X connect 8 0 0 0;
#X connect 9 0 0 0;
#X connect 10 0 13 0;
#X connect 11 0 10 0;
#X connect 12 0 14 0;
#X connect 14 0 8 0;
#X connect 14 1 4 0;
#X restore 550 164 pd preout;
#N canvas 412 13 450 300 vuin 0;
#X msg -291 -128 1;
#X obj -326 -73 *;
#X obj -226 -23 *~;
#X obj -332 -4 s \$0-vu-in;
#X obj -268 -106 r \$0-sp0;
#X obj -271 -160 r \$0-sp1;
#X obj -279 -65 r \$0-pan-out;
#X obj -319 -37 - 100;
#X obj -289 -189 inlet;
#X obj -297 49 outlet;
#X connect 0 0 1 1;
#X connect 1 0 7 0;
#X connect 4 0 1 1;
#X connect 5 0 0 0;
#X connect 6 0 2 1;
#X connect 7 0 3 0;
#X connect 7 0 9 0;
#X connect 8 0 1 0;
#X restore 251 387 pd vuin;
#N canvas 480 46 800 593 manyspigot 0;
#X obj 124 280 spigot;
#X obj 214 149 sel 0 1;
#X msg 184 202 1;
#X msg 253 198 0;
#X obj 263 246 t f f;
#X msg 287 340 -100;
#X obj 187 334 spigot;
#X obj 211 110 r \$0-mute-out;
#X obj 308 363 s \$0-vu-in;
#X msg 240 409 0;
#X msg 358 399 0;
#X obj 150 61 inlet;
#X obj 30 259 outlet;
#X obj 193 487 outlet;
#X obj 263 485 outlet;
#X obj 350 484 outlet;
#X obj 62 68 inlet;
#X connect 0 0 13 0;
#X connect 1 0 2 0;
#X connect 1 0 12 0;
#X connect 1 1 3 0;
#X connect 2 0 0 1;
#X connect 2 0 6 1;
#X connect 3 0 0 1;
#X connect 3 0 4 0;
#X connect 3 0 6 1;
#X connect 4 0 0 1;
#X connect 4 1 5 0;
#X connect 5 0 8 0;
#X connect 5 0 9 0;
#X connect 6 0 10 0;
#X connect 7 0 1 0;
#X connect 9 0 14 0;
#X connect 10 0 15 0;
#X connect 11 0 2 0;
#X connect 16 0 0 0;
#X restore 269 280 pd manyspigot;
#N canvas 152 99 599 411 audioout 0;
#X obj -202 -234 inlet~;
#X obj -238 -18 outlet~;
#X obj -81 -13 outlet~;
#X obj -94 -76 *~;
#X obj -192 -70 *~;
#X obj 134 -259 r \$0-pan-out;
#X obj -152 -202 r \$0-fader-out;
#X obj -139 -126 *~;
#X obj -268 -168 outlet;
#X obj -104 -305 inlet;
#X obj -31 -293 inlet;
#X obj -255 -265 s~ \$0-preinlet;
#X obj -9 -37 s~ \$0-postinlet;
#X obj -255 -200 env~ 16384;
#X obj -146 -171 pow 3;
#X msg 71 -261 0.9;
#X obj 222 -124 sqrt;
#X msg 118 -87 \$1 1;
#X msg 203 -86 \$1 1;
#X obj 114 -48 line~;
#X obj 205 -52 line~;
#X obj 102 -126 expr sqrt(1 - $f1);
#X obj 120 -203 expr if($f1 < 1 \, $f1 \, 1);
#X obj 118 -170 expr if($f1 > 0 \, $f1 \, 0);
#X connect 0 0 7 0;
#X connect 0 0 11 0;
#X connect 0 0 13 0;
#X connect 3 0 1 0;
#X connect 4 0 2 0;
#X connect 5 0 22 0;
#X connect 6 0 14 0;
#X connect 7 0 3 0;
#X connect 7 0 4 0;
#X connect 7 0 12 0;
#X connect 9 0 7 1;
#X connect 10 0 3 1;
#X connect 10 0 4 1;
#X connect 13 0 8 0;
#X connect 14 0 7 1;
#X connect 15 0 14 0;
#X connect 16 0 18 0;
#X connect 17 0 19 0;
#X connect 18 0 20 0;
#X connect 19 0 3 1;
#X connect 20 0 4 1;
#X connect 21 0 17 0;
#X connect 22 0 23 0;
#X connect 23 0 16 0;
#X connect 23 0 21 0;
#X restore 425 334 pd audioout;
#X obj 417 272 inlet~;
#X obj 382 420 outlet~;
#X obj 506 402 outlet~;
#X obj 206 94 f \$1;
#X obj 11 298 moses -95;
#X obj 22 255 moses -15;
#X obj 41 225 moses -3;
#X msg 76 128 0;
#N canvas 260 158 493 442 locslp 0;
#X obj 154 54 inlet;
#X obj -5 202 s \$1-slpl;
#X obj 175 102 r \$1-mutepl;
#X obj 39 115 r \$0-slpls;
#X obj 185 221 s \$0-mute-in;
#X obj 120 194 f 0;
#X obj 321 122 f;
#X obj 172 172 spigot;
#X msg 238 138 1;
#X obj 188 125 t f b;
#X obj 317 158 sel 0 1;
#X msg 245 164 0;
#X obj 106 328 + 1;
#X obj 41 325 f;
#X obj 106 377 print;
#X obj 39 275 sel 0 1;
#X obj 169 276 -1;
#X obj 55 245 f;
#X obj 47 151 t f b f;
#X obj 172 379 s hmspl;
#X text 182 356 todo... count how many spl;
#X connect 0 0 6 0;
#X connect 2 0 9 0;
#X connect 3 0 18 0;
#X connect 5 0 4 0;
#X connect 6 0 10 0;
#X connect 7 0 4 0;
#X connect 8 0 7 1;
#X connect 9 0 7 0;
#X connect 9 1 6 0;
#X connect 10 0 8 0;
#X connect 10 1 11 0;
#X connect 11 0 7 1;
#X connect 12 0 14 0;
#X connect 12 0 13 1;
#X connect 12 0 19 0;
#X connect 13 0 12 0;
#X connect 15 1 13 0;
#X connect 17 0 15 0;
#X connect 18 0 1 0;
#X connect 18 1 5 0;
#X connect 18 2 17 0;
#X restore 235 196 pd locslp;
#X obj 352 586 r~ \$0-preinlet;
#X obj 475 545 *~;
#X obj 472 568 *~;
#X obj 472 597 *~;
#X obj 469 628 *~;
#X obj 463 715 *~;
#X obj 470 750 *~;
#X obj 348 713 r~ \$0-postinlet;
#X obj 503 546 s~ 1-\$1-afpl;
#X obj 500 569 s~ 2-\$1-afpl;
#X obj 500 599 s~ 3-\$1-afpl;
#X obj 497 629 s~ 4-\$1-afpl;
#X obj 499 713 s~ 5-\$1-afpl;
#X obj 507 752 s~ 6-\$1-afpl;
#X obj 123 65 bng 15 250 50 0 empty empty empty 17 7 0 10 -33289 -159808
-159808;
#X text 137 63 MIDI;
#X obj 241 570 v m_fader\$1;
#X obj 188 669 expr ($f1/127)*2;
#X obj 217 484 del 1000;
#X obj 603 299 midicc;
#X obj 694 209 del 1000;
#X obj 664 250 v m_pan\$1;
#X obj 613 342 expr ($f1/127);
#X obj 460 832 print;
#X obj 149 374 vu 10 120 \$0-vu-in empty -1 -8 0 8 -66577 -262144 0
0;
#X obj 136 373 vsl 10 120 0 2 0 0 \$0-fader-out \$0-fader-in empty
0 -9 0 10 -260097 -1 -1 5950 1;
#X obj 124 319 tgl 15 0 \$0-pre-out \$0-pre-in empty 17 7 0 10 -4160
-262144 -262144 0 1;
#X text 141 318 PRE;
#X obj 124 336 tgl 15 0 \$0-mute-out \$0-mute-in empty 17 7 0 10 -257985
-1 -1 0 1;
#X text 140 336 MUTE;
#X obj 162 399 bng 15 250 50 0 empty empty empty 17 7 0 10 -66577 -258113
-258113;
#X obj 162 415 bng 15 250 50 0 empty empty empty 17 7 0 10 -66577 -260097
-260097;
#X obj 130 356 nbx 3 14 -1e+37 1e+37 0 0 empty empty empty 0 -8 0 10
-260097 -1 -1 1 256;
#X obj 130 520 nbx 3 14 -1e+37 1e+37 0 0 empty empty empty 0 -8 0 10
-4034 -1 -1 -100 256;
#X obj 132 281 hsl 38 10 0 1 0 0 \$0-pan-out \$0-pan-in empty -2 -8
0 10 -232576 -1 -1 1850 1;
#X text 140 259 PAN;
#X obj 128 547 nbx 2 24 0 30 0 0 empty empty empty 0 -8 0 18 -1 -260097
-260097 4 256;
#X obj 124 302 tgl 15 0 \$0-slpls empty empty 17 7 0 10 -159808 -1
-1 0 1;
#X text 141 302 S IPL;
#X text 124 94 AUX1;
#X text 124 121 AUX2;
#X text 124 148 AUX3;
#X text 125 172 AUX4;
#X text 125 197 AUX5;
#X text 125 222 AUX6;
#X obj 189 539 midicc;
#X obj 128 109 hsl 44 10 0 1 0 0 empty empty empty -2 -8 0 10 -45076
-262144 -262144 0 1;
#X obj 128 136 hsl 44 10 0 1 0 0 empty empty empty -2 -8 0 10 -45076
-262144 -262144 0 1;
#X obj 128 162 hsl 44 10 0 1 0 0 empty empty empty -2 -8 0 10 -45076
-262144 -262144 0 1;
#X obj 128 187 hsl 44 10 0 1 0 0 empty empty empty -2 -8 0 10 -45076
-262144 -262144 0 1;
#X obj 128 213 hsl 44 10 0 1 0 0 empty empty empty -2 -8 0 10 -45076
-262144 -262144 0 1;
#X obj 128 238 hsl 44 10 0 1 0 0 empty empty empty -2 -8 0 10 -45076
-262144 -262144 0 1;
#X obj 35 598 r osc_m_fader\$1;
#X obj 20 370 r osc_m_pan\$1;
#X obj 123 81 bng 15 250 50 0 empty empty empty 17 7 0 10 -33289 -159808
-159808;
#X text 148 59 comment;
#X text 138 79 OSC;
#X connect 0 0 3 0;
#X connect 0 0 2 0;
#X connect 0 0 4 0;
#X connect 0 0 8 1;
#X connect 0 0 19 0;
#X connect 0 0 39 0;
#X connect 0 0 41 0;
#X connect 1 0 3 0;
#X connect 1 0 4 0;
#X connect 2 0 10 1;
#X connect 2 0 15 0;
#X connect 3 0 55 0;
#X connect 4 0 46 0;
#X connect 5 0 18 0;
#X connect 5 0 17 0;
#X connect 5 0 16 0;
#X connect 8 0 46 0;
#X connect 9 0 45 0;
#X connect 10 0 8 0;
#X connect 10 1 9 0;
#X connect 10 2 11 1;
#X connect 10 3 11 2;
#X connect 11 0 10 0;
#X connect 11 1 13 0;
#X connect 11 2 14 0;
#X connect 12 0 11 0;
#X connect 15 0 57 0;
#X connect 17 1 52 0;
#X connect 18 1 51 0;
#X connect 19 0 58 0;
#X connect 21 0 22 0;
#X connect 21 0 23 0;
#X connect 21 0 24 0;
#X connect 21 0 25 0;
#X connect 22 0 29 0;
#X connect 23 0 30 0;
#X connect 24 0 31 0;
#X connect 25 0 32 0;
#X connect 26 0 33 0;
#X connect 27 0 34 0;
#X connect 28 0 26 0;
#X connect 28 0 27 0;
#X connect 37 0 66 0;
#X connect 38 0 46 0;
#X connect 39 0 37 0;
#X connect 40 0 35 0;
#X connect 40 1 43 0;
#X connect 41 0 42 0;
#X connect 42 0 40 0;
#X connect 43 0 55 0;
#X connect 45 0 54 0;
#X connect 46 0 53 0;
#X connect 58 0 20 0;
#X connect 66 0 35 0;
#X connect 66 1 38 0;
#X connect 67 0 22 1;
#X connect 68 0 23 1;
#X connect 69 0 24 1;
#X connect 70 0 25 1;
#X connect 71 0 26 1;
#X connect 72 0 27 1;
#X connect 73 0 46 0;
#X connect 73 0 75 0;
#X connect 74 0 55 0;
#X coords 0 -1 1 1 61 520 1 118 60;
