#N canvas 168 0 1073 789 10;
#X obj 339 7 loadbang;
#X msg 157 20 bang;
#X msg 151 46 0.5;
#X msg 36 98 1;
#X obj 118 60 cnv 15 91 430 empty empty empty 20 12 0 14 -162280 -66577
0;
#X obj 148 293 vu 10 120 \$0-vu-in-lx empty -1 -8 0 8 -66577 -262144
0 0;
#X obj 138 293 vsl 10 120 0 3 0 0 \$0-fader-out-lx \$0-fader-in-lx
empty 0 -9 0 10 -260097 -1 -1 3967 1;
#X obj 128 231 tgl 15 0 \$0-pre-out \$0-pre-in empty 17 7 0 10 -4160
-262144 -262144 0 1;
#X text 145 232 PRE;
#X obj 128 252 tgl 15 0 \$0-mute-out \$0-mute-in empty 17 7 0 10 -257985
-1 -1 0 1;
#X text 145 253 MUTE;
#X obj 123 318 bng 15 250 50 0 empty empty empty 17 7 0 10 -66577 -258113
-258113;
#X obj 123 333 bng 15 250 50 0 empty empty empty 17 7 0 10 -66577 -260097
-260097;
#X obj 130 276 nbx 3 14 -1e+37 1e+37 0 0 empty empty empty 0 -8 0 10
-260097 -1 -1 1.00008 256;
#X obj 128 439 nbx 3 14 -1e+37 1e+37 0 0 empty empty empty 0 -8 0 10
-4034 -1 -1 -100 256;
#X obj 144 195 hsl 38 10 0 1 0 0 \$0-pan-out \$0-pan-in empty -2 -8
0 10 -232576 -1 -1 1850 1;
#X text 152 179 PAN;
#X obj 119 73 cnv 15 2 410 empty empty empty 20 12 0 14 -33289 -33289
0;
#N canvas 91 70 540 300 preout 0;
#X obj -105 198 spigot;
#X obj -104 119 sel 0 1;
#X msg -117 153 1;
#X msg -53 149 0;
#X msg -44 78 0;
#X obj -140 84 r \$0-pre-out;
#X msg -187 112 1;
#X msg -305 77 bang;
#X obj -242 24 inlet;
#X obj -179 19 inlet;
#X obj -321 157 outlet;
#X obj -133 45 t b b;
#X obj -297 236 s \$0-sp1-lx;
#X obj -112 237 s \$0-sp0-lx;
#X obj -261 153 r \$0-fader-out-lx;
#X connect 0 0 13 0;
#X connect 1 0 2 0;
#X connect 1 1 3 0;
#X connect 2 0 0 1;
#X connect 3 0 0 1;
#X connect 3 0 12 0;
#X connect 4 0 1 0;
#X connect 5 0 1 0;
#X connect 5 0 7 0;
#X connect 6 0 0 0;
#X connect 7 0 10 0;
#X connect 8 0 7 0;
#X connect 9 0 11 0;
#X connect 11 0 6 0;
#X connect 11 1 4 0;
#X connect 14 0 0 0;
#X restore 466 173 pd preout;
#N canvas 260 111 639 425 vuin 0;
#X msg -291 -128 1;
#X obj -326 -73 *;
#X obj -226 -23 *~;
#X obj -279 -65 r \$0-pan-out;
#X obj -313 -25 - 100;
#X obj -289 -189 inlet;
#X obj -291 61 outlet;
#X obj -268 -106 r \$0-sp0-lx;
#X obj -271 -160 r \$0-sp1-lx;
#X obj -326 8 s \$0-vu-in-lx;
#X connect 0 0 1 1;
#X connect 1 0 4 0;
#X connect 3 0 2 1;
#X connect 4 0 6 0;
#X connect 4 0 9 0;
#X connect 5 0 1 0;
#X connect 7 0 1 1;
#X connect 8 0 0 0;
#X restore 251 387 pd vuin;
#N canvas 480 46 800 593 manyspigot 0;
#X obj 124 280 spigot;
#X obj 214 149 sel 0 1;
#X msg 184 202 1;
#X msg 253 198 0;
#X obj 263 246 t f f;
#X msg 287 340 -100;
#X obj 187 334 spigot;
#X obj 211 110 r \$0-mute-out;
#X msg 240 409 0;
#X msg 358 399 0;
#X obj 150 61 inlet;
#X obj 30 259 outlet;
#X obj 193 487 outlet;
#X obj 263 485 outlet;
#X obj 350 484 outlet;
#X obj 62 68 inlet;
#X obj 308 363 s \$0-vu-in-lx;
#X connect 0 0 12 0;
#X connect 1 0 2 0;
#X connect 1 0 11 0;
#X connect 1 1 3 0;
#X connect 2 0 0 1;
#X connect 2 0 6 1;
#X connect 3 0 0 1;
#X connect 3 0 4 0;
#X connect 3 0 6 1;
#X connect 4 0 0 1;
#X connect 4 1 5 0;
#X connect 5 0 8 0;
#X connect 5 0 16 0;
#X connect 6 0 9 0;
#X connect 7 0 1 0;
#X connect 8 0 13 0;
#X connect 9 0 14 0;
#X connect 10 0 2 0;
#X connect 15 0 0 0;
#X restore 269 280 pd manyspigot;
#N canvas 67 82 599 411 audioout 0;
#X obj -202 -234 inlet~;
#X obj -132 -54 outlet~;
#X obj -139 -126 *~;
#X obj -268 -168 outlet;
#X obj -104 -305 inlet;
#X obj -31 -293 inlet;
#X obj -152 -202 r \$0-fader-out-lx;
#X obj -255 -200 env~ 16384;
#X connect 0 0 2 0;
#X connect 0 0 7 0;
#X connect 2 0 1 0;
#X connect 4 0 2 1;
#X connect 6 0 2 1;
#X connect 7 0 3 0;
#X restore 425 334 pd audioout;
#X obj 417 272 inlet~;
#X obj 446 433 outlet~;
#X obj 165 294 vu 10 120 \$0-vu-in-rx empty -1 -8 0 8 -66577 -262144
0 0;
#X obj 177 293 vsl 10 120 0 3 0 0 \$0-fader-out-rx \$0-fader-in-rx
empty 0 -9 0 10 -260097 -1 -1 3967 1;
#X obj 168 439 nbx 3 14 -1e+37 1e+37 0 0 empty empty empty 0 -8 0 10
-4034 -1 -1 -100 256;
#X obj 17 188 r \$0-vu-in-lx;
#X obj 190 316 bng 15 250 50 0 empty empty empty 17 7 0 10 -66577 -258113
-258113;
#X obj 190 331 bng 15 250 50 0 empty empty empty 17 7 0 10 -66577 -260097
-260097;
#X obj 167 277 nbx 3 14 -1e+37 1e+37 0 0 empty empty empty 0 -8 0 10
-260097 -1 -1 1.00008 256;
#X obj 766 257 inlet~;
#X obj 782 430 outlet~;
#N canvas 480 46 800 593 manyspigot2 0;
#X obj 124 280 spigot;
#X obj 214 149 sel 0 1;
#X msg 184 202 1;
#X msg 253 198 0;
#X obj 263 246 t f f;
#X msg 287 340 -100;
#X obj 187 334 spigot;
#X obj 211 110 r \$0-mute-out;
#X msg 240 409 0;
#X msg 358 399 0;
#X obj 150 61 inlet;
#X obj 30 259 outlet;
#X obj 193 487 outlet;
#X obj 263 485 outlet;
#X obj 350 484 outlet;
#X obj 62 68 inlet;
#X obj 308 363 s \$0-vu-in-rx;
#X connect 0 0 12 0;
#X connect 1 0 2 0;
#X connect 1 0 11 0;
#X connect 1 1 3 0;
#X connect 2 0 0 1;
#X connect 2 0 6 1;
#X connect 3 0 0 1;
#X connect 3 0 4 0;
#X connect 3 0 6 1;
#X connect 4 0 0 1;
#X connect 4 1 5 0;
#X connect 5 0 8 0;
#X connect 5 0 16 0;
#X connect 6 0 9 0;
#X connect 7 0 1 0;
#X connect 8 0 13 0;
#X connect 9 0 14 0;
#X connect 10 0 2 0;
#X connect 15 0 0 0;
#X restore 618 265 pd manyspigot2;
#N canvas 412 13 450 300 vuin2 0;
#X msg -291 -128 1;
#X obj -326 -73 *;
#X obj -226 -23 *~;
#X obj -279 -65 r \$0-pan-out;
#X obj -319 -37 - 100;
#X obj -289 -189 inlet;
#X obj -297 49 outlet;
#X obj -271 -160 r \$0-sp1-rx;
#X obj -268 -106 r \$0-sp0-rx;
#X obj -332 -4 s \$0-vu-in-rx;
#X connect 0 0 1 1;
#X connect 1 0 4 0;
#X connect 3 0 2 1;
#X connect 4 0 6 0;
#X connect 4 0 9 0;
#X connect 5 0 1 0;
#X connect 7 0 0 0;
#X connect 8 0 1 1;
#X restore 600 372 pd vuin2;
#N canvas 559 150 599 411 audioout2 0;
#X obj -202 -234 inlet~;
#X obj -141 -45 outlet~;
#X obj -139 -126 *~;
#X obj -268 -168 outlet;
#X obj -104 -305 inlet;
#X obj -31 -293 inlet;
#X obj -152 -202 r \$0-fader-out-rx;
#X obj -255 -200 env~ 16384;
#X connect 0 0 2 0;
#X connect 0 0 7 0;
#X connect 2 0 1 0;
#X connect 4 0 2 1;
#X connect 6 0 2 1;
#X connect 7 0 3 0;
#X restore 774 319 pd audioout2;
#N canvas 304 217 540 300 preout2 0;
#X obj -105 198 spigot;
#X obj -104 119 sel 0 1;
#X msg -117 153 1;
#X msg -53 149 0;
#X msg -44 78 0;
#X obj -140 84 r \$0-pre-out;
#X msg -187 112 1;
#X msg -305 77 bang;
#X obj -242 24 inlet;
#X obj -179 19 inlet;
#X obj -321 157 outlet;
#X obj -133 45 t b b;
#X obj -261 153 r \$0-fader-out-rx;
#X obj -112 237 s \$0-sp0-rx;
#X obj -297 236 s \$0-sp1-rx;
#X connect 0 0 13 0;
#X connect 1 0 2 0;
#X connect 1 1 3 0;
#X connect 2 0 0 1;
#X connect 3 0 0 1;
#X connect 3 0 14 0;
#X connect 4 0 1 0;
#X connect 5 0 1 0;
#X connect 5 0 7 0;
#X connect 6 0 0 0;
#X connect 7 0 10 0;
#X connect 8 0 7 0;
#X connect 9 0 11 0;
#X connect 11 0 6 0;
#X connect 11 1 4 0;
#X connect 12 0 0 0;
#X restore 815 158 pd preout2;
#X obj 277 445 r \$0-vu-in-rx;
#X msg 256 122 0;
#X obj 160 464 nbx 2 24 0 30 0 0 empty empty empty 0 -8 0 18 -1 -260097
-260097 11 256;
#X obj 121 464 nbx 2 24 0 30 0 0 empty empty empty 0 -8 0 18 -1 -260097
-260097 10 256;
#X obj 271 167 f \$1;
#X obj 319 166 f \$2;
#X obj 435 29 t b b b b b b b b b;
#X text 158 698 comment;
#X text 157 62 stereo;
#X obj 23 297 moses -95;
#X obj 22 255 moses -15;
#X obj 41 225 moses -3;
#X obj 283 554 moses -95;
#X obj 282 512 moses -15;
#X obj 301 482 moses -3;
#X connect 0 0 43 0;
#X connect 1 0 2 0;
#X connect 1 0 3 0;
#X connect 2 0 15 0;
#X connect 3 0 6 0;
#X connect 3 0 25 0;
#X connect 5 0 14 0;
#X connect 6 0 13 0;
#X connect 18 0 6 0;
#X connect 19 0 5 0;
#X connect 20 0 18 0;
#X connect 20 1 19 0;
#X connect 20 2 21 1;
#X connect 20 3 21 2;
#X connect 21 0 20 0;
#X connect 21 1 23 0;
#X connect 22 0 21 0;
#X connect 24 0 26 0;
#X connect 25 0 30 0;
#X connect 27 0 48 0;
#X connect 27 0 47 0;
#X connect 27 0 46 0;
#X connect 31 0 35 0;
#X connect 33 0 36 0;
#X connect 33 1 34 0;
#X connect 33 2 35 1;
#X connect 33 3 35 2;
#X connect 34 0 24 0;
#X connect 35 0 33 0;
#X connect 35 1 32 0;
#X connect 36 0 25 0;
#X connect 37 0 51 0;
#X connect 37 0 50 0;
#X connect 37 0 49 0;
#X connect 38 0 7 0;
#X connect 41 0 40 0;
#X connect 42 0 39 0;
#X connect 43 0 20 1;
#X connect 43 1 18 0;
#X connect 43 2 33 1;
#X connect 43 3 36 0;
#X connect 43 4 2 0;
#X connect 43 5 3 0;
#X connect 43 6 38 0;
#X connect 43 7 41 0;
#X connect 43 8 42 0;
#X connect 47 1 12 0;
#X connect 48 1 11 0;
#X connect 50 1 29 0;
#X connect 51 1 28 0;
#X coords 0 -1 1 1 91 430 1 118 60;
