#N canvas 0 0 1255 711 10;
#X obj 62 -37 inlet~;
#X obj 474 -38 inlet~;
#X obj 112 -38 inlet~;
#X obj 162 -37 inlet~;
#X obj 211 -37 inlet~;
#X obj 260 -37 inlet~;
#X obj 310 -35 inlet~;
#X obj 357 -34 inlet~;
#X obj 408 -37 inlet~;
#X obj 520 -38 inlet~;
#X obj 572 -37 inlet~;
#X obj 618 -37 inlet~;
#X obj 665 -38 inlet~;
#X obj 712 -39 inlet~;
#X obj 759 -38 inlet~;
#X obj 820 -43 inlet~;
#X obj 754 154 throw~ signalrx;
#X obj 429 142 throw~ signallx;
#X obj 175 377 catch~ signallx;
#X obj 414 362 catch~ signalrx;
#X obj 241 463 *~;
#X obj 32 216 loadbang;
#X obj 34 262 t f f;
#X obj 448 482 - 100;
#X msg 50 168 bang;
#X msg 29 334 1;
#X msg 65 337 1;
#X obj 300 461 *~;
#X obj 714 244 r \$0-vurx;
#X obj 82 446 *;
#X obj 81 476 - 100;
#X obj 583 384 r \$0-vulx;
#X obj 90 516 s \$0-vulx;
#X obj 436 422 *;
#X obj 432 520 s \$0-vurx;
#X obj 115 60 cnv 15 200 260 empty empty Master_Out 50 10 0 12 -33289
-260097 0;
#X obj 187 160 vu 12 120 empty empty -1 -8 0 8 -66577 -1 1 0;
#X obj 221 159 vu 12 120 empty empty -1 -8 0 10 -66577 -1 0 0;
#X obj 171 159 vsl 10 120 0 3 0 0 empty empty empty 0 -9 0 10 -260097
-1 -1 3967 1;
#X obj 241 156 vsl 10 120 0 3 0 0 empty empty empty 0 -9 0 10 -260097
-1 -1 3967 1;
#X obj 170 296 nbx 3 14 -1e+37 1e+37 0 0 empty empty empty 0 -8 0 10
-4034 -1 -1 -38.06 256;
#X obj 217 296 nbx 3 14 -1e+37 1e+37 0 0 empty empty empty 0 -8 0 10
-4034 -1 -1 -38.03 256;
#X obj 167 137 nbx 3 14 -1e+37 1e+37 0 0 empty empty empty 0 -8 0 10
-260097 -1 -1 1.00008 256;
#X obj 214 137 nbx 3 14 -1e+37 1e+37 0 0 empty empty empty 0 -8 0 10
-260097 -1 -1 1.00008 256;
#X obj 152 172 bng 15 250 50 0 empty empty empty 17 7 0 10 -66577 -258113
-258113;
#X obj 152 188 bng 15 250 50 0 empty empty empty 17 7 0 10 -66577 -260097
-260097;
#X obj 254 170 bng 15 250 50 0 empty empty empty 17 7 0 10 -66577 -258113
-258113;
#X obj 254 186 bng 15 250 50 0 empty empty empty 17 7 0 10 -66577 -260097
-260097;
#X obj 951 -38 inlet~;
#X obj 892 -39 inlet~;
#X obj 1011 -40 inlet~;
#X obj 1063 -35 inlet~;
#X obj 116 290 nbx 2 24 0 30 0 0 empty empty empty 0 -8 0 18 -1 -260097
-260097 12 256;
#X obj 262 291 nbx 2 24 0 30 0 0 empty empty empty 0 -8 0 18 -1 -260097
-260097 13 256;
#X obj 954 258 loadbang;
#X obj 945 304 f \$1;
#X obj 1001 303 f \$2;
#X obj 586 426 t f f f;
#X obj 652 503 moses -95;
#X obj 705 351 moses -95;
#X obj 613 475 moses -15;
#X obj 731 316 moses -15;
#X obj 589 451 moses -3;
#X obj 743 280 moses -3;
#X obj 255 265 bng 15 250 50 0 empty empty empty 17 7 0 10 -66577 -262144
-262144;
#X obj 151 266 bng 15 250 50 0 empty empty empty 17 7 0 10 -66577 -262144
-262144;
#X obj 400 -70 dac~ 1 2 3 4 5 6 7 8 9 10 11 12 13 14;
#X obj 63 410 env~ 16384;
#X obj 492 392 env~ 16384;
#X connect 0 0 17 0;
#X connect 0 0 66 0;
#X connect 1 0 17 0;
#X connect 1 0 66 4;
#X connect 2 0 16 0;
#X connect 2 0 66 0;
#X connect 3 0 17 0;
#X connect 3 0 66 1;
#X connect 4 0 16 0;
#X connect 4 0 66 1;
#X connect 5 0 17 0;
#X connect 5 0 66 2;
#X connect 6 0 16 0;
#X connect 6 0 66 2;
#X connect 7 0 17 0;
#X connect 7 0 66 3;
#X connect 8 0 16 0;
#X connect 8 0 66 3;
#X connect 9 0 16 0;
#X connect 9 0 66 4;
#X connect 10 0 17 0;
#X connect 10 0 66 5;
#X connect 11 0 16 0;
#X connect 11 0 66 5;
#X connect 12 0 17 0;
#X connect 12 0 66 6;
#X connect 13 0 16 0;
#X connect 13 0 66 6;
#X connect 14 0 17 0;
#X connect 14 0 66 7;
#X connect 15 0 16 0;
#X connect 15 0 66 7;
#X connect 18 0 20 0;
#X connect 18 0 67 0;
#X connect 19 0 27 0;
#X connect 19 0 68 0;
#X connect 20 0 66 12;
#X connect 21 0 22 0;
#X connect 22 0 25 0;
#X connect 22 1 26 0;
#X connect 23 0 34 0;
#X connect 23 0 37 0;
#X connect 23 0 37 1;
#X connect 24 0 22 0;
#X connect 25 0 38 0;
#X connect 26 0 39 0;
#X connect 27 0 66 13;
#X connect 28 0 63 0;
#X connect 28 0 61 0;
#X connect 28 0 59 0;
#X connect 29 0 30 0;
#X connect 30 0 32 0;
#X connect 30 0 36 0;
#X connect 30 0 36 1;
#X connect 31 0 57 0;
#X connect 33 0 23 0;
#X connect 36 0 40 0;
#X connect 37 0 41 0;
#X connect 38 0 42 0;
#X connect 38 0 29 1;
#X connect 39 0 43 0;
#X connect 39 0 27 1;
#X connect 39 0 33 1;
#X connect 39 0 20 1;
#X connect 48 0 16 0;
#X connect 48 0 66 9;
#X connect 49 0 17 0;
#X connect 49 0 66 8;
#X connect 50 0 17 0;
#X connect 50 0 66 10;
#X connect 51 0 16 0;
#X connect 51 0 66 11;
#X connect 54 0 55 0;
#X connect 54 0 56 0;
#X connect 55 0 52 0;
#X connect 56 0 53 0;
#X connect 57 0 62 0;
#X connect 57 1 60 0;
#X connect 57 2 58 0;
#X connect 58 0 65 0;
#X connect 59 0 64 0;
#X connect 60 1 45 0;
#X connect 61 1 47 0;
#X connect 62 1 44 0;
#X connect 63 1 46 0;
#X connect 67 0 29 0;
#X connect 68 0 33 0;
#X coords 0 0 1 1 200 260 1 115 60;
