#N canvas 67 0 1120 704 10;
#X obj 10 49 inlet~;
#X obj 422 48 inlet~;
#X obj 492 392 env~ 4096;
#X obj 62 410 env~ 4096;
#X obj 60 48 inlet~;
#X obj 110 49 inlet~;
#X obj 159 49 inlet~;
#X obj 208 49 inlet~;
#X obj 258 51 inlet~;
#X obj 305 52 inlet~;
#X obj 356 49 inlet~;
#X obj 468 48 inlet~;
#X obj 520 49 inlet~;
#X obj 566 49 inlet~;
#X obj 613 48 inlet~;
#X obj 660 47 inlet~;
#X obj 707 48 inlet~;
#X obj 768 43 inlet~;
#X obj 393 340 throw~ signalrx;
#X obj 178 341 throw~ signallx;
#X obj 175 377 catch~ signallx;
#X obj 414 362 catch~ signalrx;
#X obj 241 463 *~;
#X obj 32 216 loadbang;
#X obj 34 262 t f f;
#X obj 448 482 - 100;
#X msg 50 168 bang;
#X msg 29 334 1;
#X msg 65 337 1;
#X obj 300 461 *~;
#X obj 738 281 moses 0;
#X obj 714 244 r \$0-vurx;
#X obj 82 446 *;
#X obj 81 476 - 100;
#X obj 619 248 r \$0-vulx;
#X obj 90 516 s \$0-vulx;
#X obj 436 422 *;
#X obj 448 523 s \$0-vurx;
#X obj 739 348 moses -70;
#X obj 644 400 t f f f;
#X obj 624 431 moses 0;
#X obj 627 498 moses -70;
#X obj 745 313 moses -10;
#X obj 631 463 moses -10;
#X obj 115 60 cnv 15 200 260 empty empty Master_Out 50 10 0 12 -33289
-260097 0;
#X obj 187 160 vu 12 120 empty empty -1 -8 0 8 -66577 -1 1 0;
#X obj 221 159 vu 12 120 empty empty -1 -8 0 10 -66577 -1 0 0;
#X obj 171 159 vsl 10 120 0 3 0 0 empty empty empty 0 -9 0 10 -260097
-1 -1 3967 1;
#X obj 241 156 vsl 10 120 0 3 0 0 empty empty empty 0 -9 0 10 -260097
-1 -1 3967 1;
#X obj 170 296 nbx 3 14 -1e+37 1e+37 0 0 empty empty empty 0 -8 0 10
-4034 -1 -1 -25.9 256;
#X obj 217 296 nbx 3 14 -1e+37 1e+37 0 0 empty empty empty 0 -8 0 10
-4034 -1 -1 -25.9 256;
#X obj 167 137 nbx 3 14 -1e+37 1e+37 0 0 empty empty empty 0 -8 0 10
-260097 -1 -1 1.00008 256;
#X obj 214 137 nbx 3 14 -1e+37 1e+37 0 0 empty empty empty 0 -8 0 10
-260097 -1 -1 1.00008 256;
#X obj 152 172 bng 15 250 50 0 empty empty empty 17 7 0 10 -66577 -258113
-258113;
#X obj 152 188 bng 15 250 50 0 empty empty empty 17 7 0 10 -66577 -260097
-260097;
#X obj 254 170 bng 15 250 50 0 empty empty empty 17 7 0 10 -66577 -258113
-258113;
#X obj 254 186 bng 15 250 50 0 empty empty empty 17 7 0 10 -66577 -260097
-260097;
#X obj 254 201 bng 15 250 50 0 empty empty empty 17 7 0 10 -66577 -4034
-4034;
#X obj 152 204 bng 15 250 50 0 empty empty empty 17 7 0 10 -66577 -4034
-4034;
#X obj 899 48 inlet~;
#X obj 840 47 inlet~;
#X obj 959 46 inlet~;
#X obj 1011 51 inlet~;
#X obj 315 -111 dac~ 1 2 3 4 5 6 7 8 9 10 11 12 13 14;
#X obj 116 290 nbx 2 24 0 30 0 0 empty empty empty 0 -8 0 18 -1 -260097
-260097 0 256;
#X obj 262 291 nbx 2 24 0 30 0 0 empty empty empty 0 -8 0 18 -1 -260097
-260097 0 256;
#X obj 954 258 loadbang;
#X obj 945 304 f \$1;
#X obj 1001 303 f \$2;
#X connect 0 0 19 0;
#X connect 0 0 63 0;
#X connect 1 0 19 0;
#X connect 1 0 63 4;
#X connect 2 0 36 0;
#X connect 3 0 32 0;
#X connect 4 0 18 0;
#X connect 4 0 63 0;
#X connect 5 0 19 0;
#X connect 5 0 63 1;
#X connect 6 0 18 0;
#X connect 6 0 63 1;
#X connect 7 0 19 0;
#X connect 7 0 63 2;
#X connect 8 0 18 0;
#X connect 8 0 63 2;
#X connect 9 0 19 0;
#X connect 9 0 63 3;
#X connect 10 0 18 0;
#X connect 10 0 63 3;
#X connect 11 0 18 0;
#X connect 11 0 63 4;
#X connect 12 0 19 0;
#X connect 12 0 63 5;
#X connect 13 0 18 0;
#X connect 13 0 63 5;
#X connect 14 0 19 0;
#X connect 14 0 63 6;
#X connect 15 0 18 0;
#X connect 15 0 63 6;
#X connect 16 0 19 0;
#X connect 16 0 63 7;
#X connect 17 0 18 0;
#X connect 17 0 63 7;
#X connect 20 0 3 0;
#X connect 20 0 22 0;
#X connect 21 0 2 0;
#X connect 21 0 29 0;
#X connect 22 0 63 12;
#X connect 23 0 24 0;
#X connect 24 0 27 0;
#X connect 24 1 28 0;
#X connect 25 0 37 0;
#X connect 25 0 46 0;
#X connect 25 0 46 1;
#X connect 26 0 24 0;
#X connect 27 0 47 0;
#X connect 28 0 48 0;
#X connect 29 0 63 13;
#X connect 30 1 55 0;
#X connect 31 0 30 0;
#X connect 31 0 38 0;
#X connect 31 0 42 0;
#X connect 32 0 33 0;
#X connect 33 0 35 0;
#X connect 33 0 45 0;
#X connect 33 0 45 1;
#X connect 34 0 39 0;
#X connect 36 0 25 0;
#X connect 38 1 57 0;
#X connect 39 0 40 0;
#X connect 39 1 43 0;
#X connect 39 2 41 0;
#X connect 40 1 53 0;
#X connect 41 1 58 0;
#X connect 42 1 56 0;
#X connect 43 1 54 0;
#X connect 45 0 49 0;
#X connect 46 0 50 0;
#X connect 47 0 51 0;
#X connect 47 0 32 1;
#X connect 48 0 52 0;
#X connect 48 0 29 1;
#X connect 48 0 36 1;
#X connect 48 0 22 1;
#X connect 59 0 18 0;
#X connect 59 0 63 9;
#X connect 60 0 19 0;
#X connect 60 0 63 8;
#X connect 61 0 19 0;
#X connect 61 0 63 10;
#X connect 62 0 18 0;
#X connect 62 0 63 11;
#X connect 66 0 67 0;
#X connect 66 0 68 0;
#X connect 67 0 64 0;
#X connect 68 0 65 0;
#X coords 0 0 1 1 200 260 1 115 60;
