#N canvas 25 0 1255 711 10;
#X obj 62 -37 inlet~;
#X obj 474 -38 inlet~;
#X obj 112 -38 inlet~;
#X obj 162 -37 inlet~;
#X obj 211 -37 inlet~;
#X obj 260 -37 inlet~;
#X obj 310 -35 inlet~;
#X obj 357 -34 inlet~;
#X obj 408 -37 inlet~;
#X obj 520 -38 inlet~;
#X obj 572 -37 inlet~;
#X obj 618 -37 inlet~;
#X obj 665 -38 inlet~;
#X obj 712 -39 inlet~;
#X obj 759 -38 inlet~;
#X obj 820 -43 inlet~;
#X obj 754 154 throw~ signalrx;
#X obj 429 142 throw~ signallx;
#X obj 175 377 catch~ signallx;
#X obj 414 362 catch~ signalrx;
#X obj 241 463 *~;
#X obj 32 216 loadbang;
#X obj 448 482 - 100;
#X msg 50 168 bang;
#X msg 29 334 1;
#X msg 65 337 1;
#X obj 300 461 *~;
#X obj 714 244 r \$0-vurx;
#X obj 72 442 *;
#X obj 81 476 - 100;
#X obj 583 384 r \$0-vulx;
#X obj 90 516 s \$0-vulx;
#X obj 436 422 *;
#X obj 432 520 s \$0-vurx;
#X obj 115 60 cnv 15 200 260 empty empty Master_Out 50 10 0 12 -33289
-260097 0;
#X obj 188 121 vu 15 160 empty empty -1 -8 0 8 -66577 -1 0 0;
#X obj 218 120 vu 15 160 empty empty -1 -8 0 10 -66577 -1 0 0;
#X obj 170 120 vsl 15 160 0 2 0 0 empty empty empty 0 -9 0 10 -260097
-1 -1 7950 1;
#X obj 238 119 vsl 15 160 0 2 0 0 empty empty empty 0 -9 0 10 -260097
-1 -1 7950 1;
#X obj 170 296 nbx 3 14 -1e+37 1e+37 0 0 empty empty empty 0 -8 0 10
-4034 -1 -1 -24.78 256;
#X obj 217 296 nbx 3 14 -1e+37 1e+37 0 0 empty empty empty 0 -8 0 10
-4034 -1 -1 -24.78 256;
#X obj 168 90 nbx 3 14 -1e+37 1e+37 0 0 empty empty empty 0 -8 0 10
-260097 -1 -1 1 256;
#X obj 217 91 nbx 3 14 -1e+37 1e+37 0 0 empty empty empty 0 -8 0 10
-260097 -1 -1 1 256;
#X obj 152 147 bng 15 250 50 0 empty empty empty 17 7 0 10 -66577 -258113
-258113;
#X obj 152 162 bng 15 250 50 0 empty empty empty 17 7 0 10 -66577 -260097
-260097;
#X obj 256 148 bng 15 250 50 0 empty empty empty 17 7 0 10 -66577 -258113
-258113;
#X obj 256 162 bng 15 250 50 0 empty empty empty 17 7 0 10 -66577 -260097
-260097;
#X obj 951 -38 inlet~;
#X obj 892 -39 inlet~;
#X obj 1011 -40 inlet~;
#X obj 1063 -35 inlet~;
#X obj 116 290 nbx 2 24 0 30 0 0 empty empty empty 0 -8 0 18 -1 -260097
-260097 12 256;
#X obj 262 291 nbx 2 24 0 30 0 0 empty empty empty 0 -8 0 18 -1 -260097
-260097 13 256;
#X obj 954 258 loadbang;
#X obj 945 304 f \$1;
#X obj 1001 303 f \$2;
#X obj 586 426 t f f f;
#X obj 652 503 moses -95;
#X obj 705 351 moses -95;
#X obj 613 475 moses -15;
#X obj 731 316 moses -15;
#X obj 589 451 moses -3;
#X obj 743 280 moses -3;
#X obj 400 -70 dac~ 1 2 3 4 5 6 7 8 9 10 11 12 13 14;
#X obj 63 410 env~ 16384;
#X obj 492 392 env~ 16384;
#X obj 245 411 pow 3;
#X obj 276 362 pow 3;
#X obj 309 334 pow 3;
#X obj 140 354 pow 3;
#X obj 763 507 midicc;
#X obj 773 550 expr ($f1/127)*2;
#X obj 854 417 del 1000;
#X obj 889 510 midicc;
#X obj 899 553 expr ($f1/127)*2;
#X obj 980 420 del 1000;
#X obj 34 262 t f f b b;
#X obj 127 79 bng 15 250 50 0 empty empty empty 17 7 0 10 -66577 -159808
-159808;
#X obj 824 458 v s_master_fader_\$1;
#X obj 950 461 v s_master_fader_\$2;
#X obj 82 560 r osc_s_master_fader_\$1;
#X obj 81 589 r osc_s_master_fader_\$2;
#X obj 240 561 r osc_s_master_pan_\$1;
#X obj 127 95 bng 15 250 50 0 empty empty empty 17 7 0 10 -66577 -159808
-159808;
#X obj 138 655 s sosc\$1;
#X obj 229 656 s sosc\$2;
#X connect 0 0 17 0;
#X connect 0 0 63 0;
#X connect 1 0 17 0;
#X connect 1 0 63 4;
#X connect 2 0 16 0;
#X connect 2 0 63 0;
#X connect 3 0 17 0;
#X connect 3 0 63 1;
#X connect 4 0 16 0;
#X connect 4 0 63 1;
#X connect 5 0 17 0;
#X connect 5 0 63 2;
#X connect 6 0 16 0;
#X connect 6 0 63 2;
#X connect 7 0 17 0;
#X connect 7 0 63 3;
#X connect 8 0 16 0;
#X connect 8 0 63 3;
#X connect 9 0 16 0;
#X connect 9 0 63 4;
#X connect 10 0 17 0;
#X connect 10 0 63 5;
#X connect 11 0 16 0;
#X connect 11 0 63 5;
#X connect 12 0 17 0;
#X connect 12 0 63 6;
#X connect 13 0 16 0;
#X connect 13 0 63 6;
#X connect 14 0 17 0;
#X connect 14 0 63 7;
#X connect 15 0 16 0;
#X connect 15 0 63 7;
#X connect 18 0 20 0;
#X connect 18 0 64 0;
#X connect 19 0 26 0;
#X connect 19 0 65 0;
#X connect 20 0 63 12;
#X connect 21 0 76 0;
#X connect 22 0 33 0;
#X connect 22 0 36 0;
#X connect 22 0 36 1;
#X connect 23 0 76 0;
#X connect 24 0 37 0;
#X connect 25 0 38 0;
#X connect 26 0 63 13;
#X connect 27 0 62 0;
#X connect 27 0 60 0;
#X connect 27 0 58 0;
#X connect 28 0 29 0;
#X connect 29 0 31 0;
#X connect 29 0 35 0;
#X connect 29 0 35 1;
#X connect 30 0 56 0;
#X connect 32 0 22 0;
#X connect 35 0 39 0;
#X connect 36 0 40 0;
#X connect 37 0 41 0;
#X connect 37 0 66 0;
#X connect 37 0 69 0;
#X connect 38 0 42 0;
#X connect 38 0 67 0;
#X connect 38 0 68 0;
#X connect 39 0 84 0;
#X connect 40 0 85 0;
#X connect 47 0 16 0;
#X connect 47 0 63 9;
#X connect 48 0 17 0;
#X connect 48 0 63 8;
#X connect 49 0 17 0;
#X connect 49 0 63 10;
#X connect 50 0 16 0;
#X connect 50 0 63 11;
#X connect 53 0 54 0;
#X connect 53 0 55 0;
#X connect 54 0 51 0;
#X connect 55 0 52 0;
#X connect 56 0 61 0;
#X connect 56 1 59 0;
#X connect 56 2 57 0;
#X connect 59 1 44 0;
#X connect 60 1 46 0;
#X connect 61 1 43 0;
#X connect 62 1 45 0;
#X connect 64 0 28 0;
#X connect 65 0 32 0;
#X connect 66 0 20 1;
#X connect 67 0 26 1;
#X connect 68 0 32 1;
#X connect 69 0 28 1;
#X connect 70 0 77 0;
#X connect 70 1 71 0;
#X connect 71 0 37 0;
#X connect 72 0 78 0;
#X connect 73 0 77 0;
#X connect 73 1 74 0;
#X connect 74 0 38 0;
#X connect 75 0 79 0;
#X connect 76 0 24 0;
#X connect 76 1 25 0;
#X connect 76 2 72 0;
#X connect 76 3 75 0;
#X connect 78 0 70 0;
#X connect 79 0 73 0;
#X connect 80 0 37 0;
#X connect 80 0 83 0;
#X connect 81 0 38 0;
#X connect 81 0 83 0;
#X coords 0 0 1 1 200 260 1 115 60;
