#N canvas 164 45 810 575 10;
#X text 123 74 SIGNAL ROUTING;
#X text 118 136 JACK ADC;
#X msg 135 162 0 1 2 3 4 5 6 7;
#X msg 197 161 0 1 2 3 4 5 6 7;
#X text 198 135 MIX IN;
#X text 224 191 MONO;
#X msg 221 291 8 9 10 11;
#X text 263 302 STEREO;
#X text 158 205 ---->;
#X msg 128 290 8 9 10 11;
#X text 168 306 -->;
#X text 342 136 JACK DAC;
#X msg 351 158 0 1 2 3 4 5 6 7;
#X text 272 195 --------->;
#X text 252 357 MASTER OUT;
#X msg 347 365 12 13;
#X msg 212 367 12 13;
#X text 259 368 --------->;
#X msg 166 411 1 2 3 4;
#X msg 342 407 14 15 16 17;
#X text 280 186 POST FL;
#X text 209 422 AUX POST;
#X text 211 438 ----------->;
#X msg 194 488 5 6;
#X text 223 490 AUX PRE;
#X text 246 506 ---------->;
#X msg 340 484 18 19;
#X text 129 87 ============;
#X connect 3 0 16 0;
#X connect 3 0 18 0;
#X connect 3 0 23 0;
#X connect 6 0 16 0;
