#N canvas 707 364 450 300 10;
#X obj 90 158 sendOSC;
#X msg 102 61 disconnect;
#X msg 83 20 connect localhost 9003;
#X msg 37 274 send /fader/mono/0 1.3;
#X msg 151 123 send /fader/0 1.3;
#X connect 1 0 0 0;
#X connect 2 0 0 0;
#X connect 3 0 0 0;
#X connect 4 0 0 0;
